<svg xmlns="http://www.w3.org/2000/svg" width="469" height="513" viewBox="0 0 469 513">
<g>
<path d="M 22.51 511.02 C22.18,510.49 23.31,501.82 25.03,491.77 C26.74,481.72 28.53,470.85 29.01,467.61 C29.50,464.37 30.35,459.64 30.92,457.11 C31.48,454.57 32.87,446.42 33.99,439.00 C37.44,416.25 38.13,412.82 41.19,403.16 C46.02,387.88 56.81,372.43 68.96,363.38 C76.14,358.03 83.80,354.24 110.00,343.07 C144.73,328.26 145.40,327.94 147.75,325.16 C148.99,323.70 152.11,319.58 154.68,316.00 C157.25,312.42 160.62,308.02 162.18,306.22 C163.73,304.41 165.00,302.60 165.00,302.20 C165.00,301.79 162.19,299.94 158.75,298.08 C149.70,293.18 137.54,280.36 132.68,270.59 C130.56,266.33 128.99,263.57 127.83,260.64 C124.17,251.43 124.52,240.64 124.23,176.59 L 123.88 101.68 L 118.59 90.09 C110.53,72.42 109.70,69.30 110.21,58.65 C110.58,51.11 111.19,48.35 113.71,43.00 C117.55,34.80 124.26,28.08 132.84,23.81 C136.50,21.99 139.86,19.94 140.29,19.26 C141.85,16.84 145.33,15.82 155.20,14.89 C163.64,14.09 166.29,13.39 172.05,10.40 C176.70,8.00 180.70,6.72 184.52,6.41 C187.61,6.16 194.05,4.72 198.82,3.22 C207.42,0.52 207.79,0.50 239.86,0.22 C258.63,0.06 272.71,0.33 273.36,0.87 C273.99,1.38 280.80,3.60 288.50,5.81 C346.45,22.43 349.21,23.47 357.41,31.78 C359.87,34.27 363.37,39.28 365.19,42.91 C368.37,49.24 368.50,49.96 368.48,61.00 C368.46,72.24 368.37,72.68 364.65,80.50 C362.55,84.90 359.52,91.77 357.92,95.78 L 355.00 103.05 L 354.99 173.28 C354.99,239.22 354.87,243.99 353.05,251.56 C351.99,255.99 350.19,261.99 349.04,264.89 C344.47,276.49 332.30,290.64 320.96,297.52 C317.68,299.51 315.00,301.59 315.00,302.12 C315.00,302.66 317.60,306.57 320.78,310.80 C323.97,315.04 327.97,320.55 329.69,323.05 C332.59,327.26 333.81,328.01 346.66,333.37 C354.27,336.55 361.24,339.55 362.15,340.02 C368.33,343.27 377.28,346.28 381.97,346.69 C388.16,347.23 395.15,351.01 396.92,354.79 C397.54,356.11 400.57,358.30 404.06,359.95 C411.43,363.44 426.06,377.72 430.75,386.00 C437.78,398.42 439.84,405.69 444.99,436.23 C452.93,483.40 455.92,502.20 456.22,507.00 L 456.50 511.50 L 450.57 511.81 C445.83,512.05 444.08,511.70 441.86,510.05 C439.38,508.22 438.39,508.09 432.79,508.89 C430.55,509.20 426.88,509.39 423.22,509.40 C429.56,509.29 435.53,508.72 437.69,507.92 C439.81,507.12 439.67,506.71 432.89,494.30 C429.04,487.26 425.47,481.07 424.95,480.55 C424.35,479.95 422.48,481.18 419.88,483.89 C416.04,487.88 408.69,492.00 405.42,492.00 C403.76,492.00 403.63,493.57 404.95,497.60 C405.47,499.20 406.39,502.39 406.98,504.71 L 408.05 508.91 L 411.11 509.07 C408.72,509.14 407.80,509.53 407.10,510.37 C405.13,512.76 395.86,512.61 393.65,510.16 C392.73,509.15 391.07,504.77 389.95,500.41 C388.80,495.95 384.77,486.18 380.70,478.00 C373.75,463.99 373.36,463.46 369.50,462.24 C360.25,459.33 356.92,457.68 352.59,453.87 C347.19,449.11 342.01,440.25 338.95,430.50 C337.75,426.65 335.80,422.69 334.63,421.71 C327.58,415.79 308.55,405.00 295.50,399.55 C293.30,398.63 285.42,396.31 278.00,394.41 C235.76,383.57 192.81,390.46 154.50,414.24 C143.73,420.92 141.47,423.23 140.53,428.50 C139.53,434.14 133.92,445.88 130.21,450.11 C125.63,455.33 120.08,458.85 112.34,461.43 L 105.50 463.72 L 100.00 474.11 C96.97,479.82 92.47,490.58 90.00,498.00 L 85.50 511.50 L 79.67 511.80 C76.02,511.99 73.26,511.63 72.31,510.84 C71.41,510.10 65.92,509.62 59.49,509.44 C59.65,509.44 59.80,509.43 59.96,509.43 L 71.42 509.14 L 73.20 500.89 C74.17,496.35 74.87,492.58 74.74,492.50 C74.61,492.42 72.25,491.52 69.50,490.50 C66.64,489.44 62.30,486.56 59.35,483.77 C56.51,481.08 53.93,479.30 53.62,479.81 C52.13,482.22 39.00,507.83 39.00,508.32 C39.00,508.64 41.14,509.08 43.75,509.30 C44.49,509.37 45.60,509.42 46.96,509.46 C41.69,509.63 37.45,510.02 36.53,510.65 C34.26,512.20 23.42,512.49 22.51,511.02 ZM 227.00 305.93 C232.46,307.59 235.21,308.68 238.02,308.93 C242.57,309.31 247.31,307.49 264.00,302.28 C271.98,299.79 280.52,297.19 283.00,296.49 C311.29,288.57 322.89,281.31 332.23,265.69 C339.69,253.20 340.00,250.86 340.00,206.27 C340.00,184.67 339.70,167.00 339.34,167.00 C338.98,167.00 337.18,168.15 335.33,169.56 C329.98,173.64 321.32,177.01 313.62,178.01 C304.22,179.23 173.39,179.23 164.95,178.01 C157.91,176.99 149.81,173.79 143.71,169.60 C141.62,168.17 139.44,167.00 138.87,167.00 C138.15,167.00 137.95,179.38 138.22,206.25 L 138.62 245.50 L 141.30 253.58 C146.37,268.88 156.32,280.49 170.12,287.22 C174.18,289.20 185.82,293.36 196.00,296.46 C206.18,299.57 220.12,303.83 227.00,305.93 ZM 134.54 89.75 L 135.90 93.01 L 239.50 92.75 L 343.09 92.50 L 347.60 82.55 C354.06,68.31 355.35,62.13 353.41,54.66 C351.47,47.18 347.99,41.68 343.24,38.58 C338.81,35.69 332.93,33.67 307.80,26.42 C297.46,23.44 280.34,18.49 269.75,15.42 C248.48,9.25 238.77,7.93 229.89,9.98 C221.01,12.03 193.63,19.96 191.76,21.02 C190.81,21.56 189.13,22.00 188.03,22.00 C186.05,22.00 184.53,22.51 171.92,27.38 C167.85,28.96 162.15,30.18 156.92,30.59 C152.29,30.96 147.82,31.81 147.00,32.49 C146.18,33.16 142.70,35.19 139.27,36.99 C129.33,42.21 124.72,49.84 124.78,61.00 C124.81,66.41 125.52,69.10 129.00,77.00 C131.30,82.22 133.79,87.96 134.54,89.75 ZM 423.23 442.69 C428.27,452.76 432.72,460.67 433.12,460.26 C433.52,459.84 433.46,457.25 433.00,454.50 C432.53,451.75 430.94,441.85 429.46,432.50 C426.49,413.75 423.51,403.08 419.13,395.50 C414.97,388.31 405.16,377.70 401.52,376.45 C397.56,375.08 390.36,370.10 386.56,366.10 C384.95,364.39 382.92,363.00 382.06,362.99 C381.20,362.99 379.21,362.32 377.64,361.49 C376.06,360.67 373.88,360.00 372.79,360.00 C371.70,360.00 361.82,356.17 350.83,351.50 C339.84,346.83 329.87,343.02 328.67,343.05 C326.16,343.12 272.83,375.01 272.23,376.81 C271.99,377.54 272.89,378.00 274.58,378.00 C284.00,378.00 319.89,392.64 333.60,402.07 L 337.78 404.94 L 340.64 399.28 C344.36,391.91 347.88,390.00 357.70,390.00 C372.45,390.00 392.88,401.24 407.88,417.61 C412.89,423.08 415.80,427.84 423.23,442.69 ZM 51.45 451.00 C52.50,448.93 53.34,446.45 53.52,444.96 C53.56,444.97 53.60,444.98 53.64,444.98 C54.11,444.96 57.13,440.05 60.34,434.06 C70.42,415.28 86.01,401.18 105.42,393.31 C112.20,390.56 114.79,390.03 121.53,390.02 C131.93,390.00 134.93,391.83 139.11,400.76 L 141.10 405.02 L 145.33 402.12 C157.73,393.58 181.17,383.39 197.50,379.42 C201.35,378.49 205.06,377.58 205.75,377.39 C207.13,377.03 207.49,375.00 206.17,375.00 C205.71,375.00 193.32,367.80 178.62,359.00 C163.93,350.20 151.06,343.00 150.02,343.00 C148.34,343.00 123.51,353.14 106.00,360.97 C102.43,362.57 97.14,364.80 94.25,365.93 C80.06,371.45 66.45,383.79 59.24,397.65 C54.81,406.17 53.09,412.21 50.50,428.33 L 48.92 438.15 L 50.14 439.11 C49.86,439.03 49.61,439.06 49.42,439.25 C48.60,440.06 45.99,453.75 46.03,457.00 C46.06,459.45 46.09,459.46 47.61,457.50 C48.46,456.40 50.19,453.48 51.45,451.00 ZM 166.22 162.89 C174.20,164.22 305.35,164.24 312.53,162.91 C319.64,161.60 324.79,159.09 329.93,154.45 C333.78,150.97 339.97,140.63 338.86,139.53 C338.19,138.86 140.88,138.79 140.21,139.46 C139.21,140.46 144.70,149.75 148.60,153.66 C153.79,158.84 159.31,161.74 166.22,162.89 ZM 251.03 511.17 C248.33,510.29 247.79,501.35 247.74,456.75 C247.70,419.31 247.25,409.56 251.06,407.43 C252.77,406.47 255.36,407.05 259.23,407.35 C271.70,408.29 285.13,412.18 299.98,419.12 C325.60,431.10 347.38,451.18 362.21,476.50 C368.36,487.00 375.20,504.31 374.80,508.37 C374.51,511.45 374.40,511.51 368.64,511.80 C364.49,512.02 362.29,511.67 361.12,510.61 C359.88,509.49 354.00,509.15 324.52,508.90 C343.59,508.97 360.00,508.95 360.00,508.77 C360.00,507.54 355.14,496.26 351.58,489.20 C338.81,463.91 316.70,443.05 290.30,431.37 C285.58,429.28 265.57,423.00 263.64,423.00 C262.81,423.00 262.82,495.84 263.64,502.70 C264.15,506.94 264.65,507.97 266.38,508.29 C267.14,508.43 277.07,508.58 290.22,508.69 C266.35,508.62 263.99,508.93 263.66,510.20 C263.30,511.57 262.15,511.86 257.62,511.70 C254.55,511.59 251.58,511.35 251.03,511.17 ZM 104.67 511.33 C102.54,509.20 105.28,499.98 112.80,483.94 C131.97,443.07 176.31,411.25 219.32,407.50 C223.32,407.15 225.96,406.47 227.70,407.42 C231.49,409.51 231.00,419.39 231.00,457.53 C231.00,500.09 231.14,509.42 227.37,511.45 C226.17,512.09 224.57,512.00 222.45,512.00 C219.30,512.00 215.98,511.37 214.71,510.55 C213.44,509.71 209.27,509.33 194.29,509.13 C205.44,509.25 212.73,509.40 212.88,509.54 C215.45,512.11 216.00,503.41 216.00,460.33 L 216.00 422.96 L 213.25 423.59 C193.20,428.17 178.95,434.68 163.00,446.56 C144.53,460.31 129.98,479.86 121.55,502.26 L 119.09 508.82 L 158.39 508.93 C124.36,508.85 119.57,509.08 118.11,510.40 C116.32,512.02 106.06,512.73 104.67,511.33 ZM 138.92 123.25 C138.96,123.67 184.11,123.89 239.25,123.75 L 339.50 123.50 L 339.50 108.50 L 239.31 108.25 L 139.12 107.99 L 138.49 112.25 C138.14,114.59 138.08,117.85 138.35,119.50 C138.62,121.15 138.87,122.84 138.92,123.25 ZM 264.34 357.36 C265.54,360.16 266.42,361.05 267.57,360.61 C270.37,359.54 313.44,333.72 315.16,332.08 C316.71,330.62 316.24,329.69 308.83,319.50 C304.43,313.45 300.43,308.35 299.93,308.17 C299.44,307.99 291.94,310.63 283.27,314.03 C274.60,317.43 263.76,321.18 259.20,322.36 C252.84,324.00 251.01,324.85 251.38,326.00 C251.80,327.35 260.14,347.50 264.34,357.36 ZM 188.00 346.90 C200.93,354.66 211.86,361.00 212.31,361.00 C213.19,361.00 215.43,356.17 222.28,339.50 C226.33,329.64 227.97,326.28 226.93,324.76 C226.24,323.76 224.38,323.56 221.25,322.81 C217.54,321.93 206.71,318.21 197.20,314.54 C187.68,310.87 179.52,308.01 179.05,308.18 C178.58,308.36 174.60,313.54 170.20,319.71 C164.46,327.73 162.52,331.18 163.34,331.86 C163.98,332.38 175.07,339.15 188.00,346.90 ZM 371.00 447.28 C372.38,447.49 375.30,447.47 377.50,447.22 C383.89,446.50 401.00,436.53 401.00,433.52 C401.00,429.34 384.23,415.20 372.24,409.27 C363.34,404.88 354.53,403.62 353.69,406.63 C349.10,423.20 358.52,445.32 371.00,447.28 ZM 98.93 446.63 C111.91,450.13 122.31,441.39 125.71,424.14 C127.06,417.32 127.12,415.10 126.09,410.50 L 124.86 405.00 L 120.68 405.03 C115.47,405.06 105.45,409.27 96.97,414.99 C90.20,419.55 78.00,431.36 78.00,433.35 C78.00,436.01 91.63,444.67 98.93,446.63 ZM 252.59 269.98 C245.02,272.57 233.55,272.58 226.32,270.01 C220.23,267.85 210.07,261.18 207.09,257.39 C204.34,253.89 204.43,249.89 207.31,247.17 C210.79,243.91 213.85,244.50 221.19,249.85 C224.85,252.51 229.90,255.27 232.41,255.98 C241.36,258.48 251.22,255.78 259.73,248.50 C264.41,244.50 267.59,244.11 271.37,247.07 C274.75,249.74 274.82,253.88 271.53,257.78 C267.84,262.17 259.25,267.70 252.59,269.98 ZM 225.38 373.54 C226.07,375.34 252.96,375.28 253.65,373.48 C253.92,372.76 252.81,369.10 251.17,365.34 C249.54,361.58 246.54,354.45 244.52,349.50 C242.50,344.55 240.45,340.10 239.97,339.60 C239.00,338.60 238.42,339.77 230.48,358.92 C227.42,366.31 225.13,372.88 225.38,373.54 ZM 393.57 469.13 C398.10,478.16 398.15,478.22 401.32,477.60 C407.84,476.32 412.95,470.60 413.73,463.71 C414.34,458.29 409.99,447.28 407.77,448.62 C407.07,449.05 403.66,451.33 400.19,453.69 C396.73,456.06 392.79,458.27 391.44,458.60 C390.10,458.94 389.00,459.40 389.00,459.63 C389.00,459.85 391.05,464.13 393.57,469.13 ZM 75.09 476.69 C76.97,477.35 79.06,477.91 79.73,477.94 C80.76,477.99 90.64,459.96 89.78,459.61 C87.29,458.60 77.72,453.14 75.32,451.36 C73.57,450.06 71.66,449.00 71.08,449.00 C70.51,449.00 68.85,451.33 67.41,454.18 C65.36,458.22 64.89,460.33 65.28,463.76 C65.89,469.17 70.32,475.02 75.09,476.69 ZM 53.39 443.38 C53.11,442.35 52.49,441.26 51.80,440.44 C52.93,441.44 53.56,442.60 53.39,443.38 Z" fill="rgba(0,0,0,1)"/>
<path d="M 213.68 14.30 C220.16,12.47 226.43,10.78 229.89,9.98 C238.77,7.93 248.48,9.25 269.75,15.42 C280.34,18.49 297.46,23.44 307.80,26.42 C332.93,33.67 338.81,35.69 343.24,38.58 C347.99,41.68 351.47,47.18 353.41,54.66 C355.35,62.13 354.06,68.31 347.60,82.55 L 343.09 92.50 L 239.50 92.75 L 135.90 93.01 L 135.48 92.00 L 222.98 91.99 L 310.50 91.98 L 315.41 80.78 C319.97,70.34 320.32,68.99 320.39,61.04 C320.45,53.82 320.06,51.63 317.85,46.88 C314.47,39.64 309.41,34.08 302.98,30.59 C300.17,29.05 287.21,24.71 274.18,20.92 C261.16,17.14 247.49,13.07 243.82,11.88 C238.78,10.24 235.71,9.84 231.32,10.26 C228.80,10.49 221.42,12.25 213.68,14.30 ZM 166.22 162.89 C164.64,162.62 163.14,162.27 161.70,161.82 C166.32,162.19 194.93,162.37 228.06,162.22 L 292.11 161.94 L 295.31 158.39 C299.55,153.67 304.97,144.06 304.99,141.25 L 305.00 139.13 C325.05,139.22 338.69,139.35 338.86,139.53 C339.97,140.63 333.78,150.97 329.93,154.45 C324.79,159.09 319.64,161.60 312.53,162.91 C305.35,164.24 174.20,164.22 166.22,162.89 ZM 155.98 159.36 C153.39,157.90 150.96,156.01 148.60,153.66 C147.45,152.50 146.16,150.89 144.94,149.15 C148.01,153.08 152.12,156.91 155.98,159.36 ZM 129.45 78.02 C129.30,77.68 129.15,77.34 129.00,77.00 C126.37,71.04 125.32,68.04 124.95,64.61 C125.36,67.88 126.52,71.15 129.45,78.02 ZM 253.71 139.00 L 209.99 139.00 C224.12,138.98 239.12,138.99 253.71,139.00 ZM 140.80 142.14 C140.33,141.09 140.06,140.26 140.09,139.79 L 140.51 141.25 C140.59,141.54 140.69,141.84 140.80,142.14 ZM 125.97 51.97 C127.92,45.52 132.28,40.66 139.27,36.99 C132.31,40.64 127.94,45.53 125.97,51.97 Z" fill="rgba(29,55,159,1)"/>
<path d="M 130.10 79.56 C125.51,68.88 124.75,66.22 124.75,60.81 C124.76,49.81 129.42,42.16 139.27,36.99 C142.70,35.19 146.18,33.16 147.00,32.49 C147.82,31.81 152.29,30.96 156.92,30.59 C162.15,30.18 167.85,28.96 171.92,27.38 C184.53,22.51 186.05,22.00 188.03,22.00 C189.13,22.00 190.81,21.56 191.76,21.02 C195.21,19.07 225.63,10.79 231.32,10.26 C235.71,9.84 238.78,10.24 243.82,11.88 C247.49,13.07 261.16,17.14 274.18,20.92 C287.21,24.71 300.17,29.05 302.98,30.59 C309.41,34.08 314.47,39.64 317.85,46.88 C320.06,51.63 320.45,53.82 320.39,61.04 C320.32,68.99 319.97,70.34 315.41,80.78 L 310.50 91.98 L 222.98 91.99 L 135.46 92.00 ZM 161.11 161.75 C153.86,159.87 142.65,148.72 140.51,141.25 L 139.87 139.00 L 305.00 139.00 L 304.99 141.25 C304.97,144.06 299.55,153.67 295.31,158.39 L 292.11 161.94 L 228.06 162.22 C192.83,162.37 162.70,162.16 161.11,161.75 Z" fill="rgba(51,76,176,1)"/>
<path d="M 264.34 357.36 C260.14,347.50 251.80,327.35 251.38,326.00 C251.01,324.85 252.84,324.00 259.20,322.36 C263.76,321.18 274.60,317.43 283.27,314.03 C291.94,310.63 299.44,307.99 299.93,308.17 C300.43,308.35 304.43,313.45 308.83,319.50 C316.24,329.69 316.71,330.62 315.16,332.08 C313.44,333.72 270.37,359.54 267.57,360.61 C266.42,361.05 265.54,360.16 264.34,357.36 ZM 188.00 346.90 C175.07,339.15 163.98,332.38 163.34,331.86 C162.52,331.18 164.46,327.73 170.20,319.71 C174.60,313.54 178.58,308.36 179.05,308.18 C179.52,308.01 187.68,310.87 197.20,314.54 C206.71,318.21 217.54,321.93 221.25,322.81 C224.38,323.56 226.24,323.76 226.93,324.76 C227.97,326.28 226.33,329.64 222.28,339.50 C215.43,356.17 213.19,361.00 212.31,361.00 C211.86,361.00 200.93,354.66 188.00,346.90 ZM 43.75 509.30 C41.14,509.08 39.00,508.64 39.00,508.32 C39.00,507.83 52.13,482.22 53.62,479.81 C53.93,479.30 56.51,481.08 59.35,483.77 C62.30,486.56 66.64,489.44 69.50,490.50 C72.25,491.52 74.61,492.42 74.74,492.50 C74.87,492.58 74.17,496.35 73.20,500.89 L 71.42 509.14 L 59.96 509.43 C53.66,509.59 46.36,509.53 43.75,509.30 ZM 415.28 509.28 L 408.05 508.91 L 406.98 504.71 C406.39,502.39 405.47,499.20 404.95,497.60 C403.63,493.57 403.76,492.00 405.42,492.00 C408.69,492.00 416.04,487.88 419.88,483.89 C422.48,481.18 424.35,479.95 424.95,480.55 C425.47,481.07 429.04,487.26 432.89,494.30 C439.67,506.71 439.81,507.12 437.69,507.92 C434.62,509.06 423.84,509.72 415.28,509.28 Z" fill="rgba(157,226,253,1)"/>
<path d="M 212.88 509.54 C212.63,509.29 191.42,509.03 165.75,508.95 L 119.09 508.82 L 121.55 502.26 C129.98,479.86 144.53,460.31 163.00,446.56 C178.95,434.68 193.20,428.17 213.25,423.59 L 216.00 422.96 L 216.00 460.33 C216.00,503.41 215.45,512.11 212.88,509.54 ZM 266.38 508.29 C264.65,507.97 264.15,506.94 263.64,502.70 C262.82,495.84 262.81,423.00 263.64,423.00 C265.57,423.00 285.58,429.28 290.30,431.37 C316.70,443.05 338.81,463.91 351.58,489.20 C355.14,496.26 360.00,507.54 360.00,508.77 C360.00,509.20 268.73,508.73 266.38,508.29 ZM 423.23 442.69 C415.80,427.84 412.89,423.08 407.88,417.61 C392.88,401.24 372.45,390.00 357.70,390.00 C347.88,390.00 344.36,391.91 340.64,399.28 L 337.78 404.94 L 333.60 402.07 C319.89,392.64 284.00,378.00 274.58,378.00 C272.89,378.00 271.99,377.54 272.23,376.81 C272.83,375.01 326.16,343.12 328.67,343.05 C329.87,343.02 339.84,346.83 350.83,351.50 C361.82,356.17 371.70,360.00 372.79,360.00 C373.88,360.00 376.06,360.67 377.64,361.49 C379.21,362.32 381.20,362.99 382.06,362.99 C382.92,363.00 384.95,364.39 386.56,366.10 C390.36,370.10 397.56,375.08 401.52,376.45 C405.16,377.70 414.97,388.31 419.13,395.50 C423.51,403.08 426.49,413.75 429.46,432.50 C430.94,441.85 432.53,451.75 433.00,454.50 C433.46,457.25 433.52,459.84 433.12,460.26 C432.72,460.67 428.27,452.76 423.23,442.69 ZM 53.35 443.54 C53.67,442.69 52.87,441.25 51.42,440.11 L 48.92 438.15 L 50.50 428.33 C53.09,412.21 54.81,406.17 59.24,397.65 C66.45,383.79 80.06,371.45 94.25,365.93 C97.14,364.80 102.43,362.57 106.00,360.97 C123.51,353.14 148.34,343.00 150.02,343.00 C151.06,343.00 163.93,350.20 178.62,359.00 C193.32,367.80 205.71,375.00 206.17,375.00 C207.49,375.00 207.13,377.03 205.75,377.39 C205.06,377.58 201.35,378.49 197.50,379.42 C181.17,383.39 157.73,393.58 145.33,402.12 L 141.10 405.02 L 139.11 400.76 C134.93,391.83 131.93,390.00 121.53,390.02 C114.79,390.03 112.20,390.56 105.42,393.31 C86.01,401.18 70.42,415.28 60.34,434.06 C57.13,440.05 54.11,444.96 53.64,444.98 C53.17,444.99 53.04,444.34 53.35,443.54 Z" fill="rgba(220,244,253,1)"/>
<path d="M 138.92 123.25 C138.87,122.84 138.62,121.15 138.35,119.50 C138.08,117.85 138.14,114.59 138.49,112.25 L 139.12 107.99 L 239.31 108.25 L 339.50 108.50 L 339.50 123.50 L 239.25 123.75 C184.11,123.89 138.96,123.67 138.92,123.25 ZM 225.38 373.54 C225.13,372.88 227.42,366.31 230.48,358.92 C238.42,339.77 239.00,338.60 239.97,339.60 C240.45,340.10 242.50,344.55 244.52,349.50 C246.54,354.45 249.54,361.58 251.17,365.34 C252.81,369.10 253.92,372.76 253.65,373.48 C252.96,375.28 226.07,375.34 225.38,373.54 Z" fill="rgba(250,186,5,1)"/>
<path d="M 75.09 476.69 C70.32,475.02 65.89,469.17 65.28,463.76 C64.89,460.33 65.36,458.22 67.41,454.18 C68.85,451.33 70.51,449.00 71.08,449.00 C71.66,449.00 73.57,450.06 75.32,451.36 C77.72,453.14 87.29,458.60 89.78,459.61 C90.64,459.96 80.76,477.99 79.73,477.94 C79.06,477.91 76.97,477.35 75.09,476.69 ZM 393.57 469.13 C391.05,464.13 389.00,459.85 389.00,459.63 C389.00,459.40 390.10,458.94 391.44,458.60 C392.79,458.27 396.73,456.06 400.19,453.69 C403.66,451.33 407.07,449.05 407.77,448.62 C409.99,447.28 414.34,458.29 413.73,463.71 C412.95,470.60 407.84,476.32 401.32,477.60 C398.15,478.22 398.10,478.16 393.57,469.13 ZM 98.93 446.63 C91.63,444.67 78.00,436.01 78.00,433.35 C78.00,431.36 90.20,419.55 96.97,414.99 C105.45,409.27 115.47,405.06 120.68,405.03 L 124.86 405.00 L 126.09 410.50 C127.12,415.10 127.06,417.32 125.71,424.14 C122.31,441.39 111.91,450.13 98.93,446.63 ZM 371.00 447.28 C358.52,445.32 349.10,423.20 353.69,406.63 C354.53,403.62 363.34,404.88 372.24,409.27 C384.23,415.20 401.00,429.34 401.00,433.52 C401.00,436.53 383.89,446.50 377.50,447.22 C375.30,447.47 372.38,447.49 371.00,447.28 ZM 227.00 305.93 C220.12,303.83 206.18,299.57 196.00,296.46 C185.82,293.36 174.18,289.20 170.12,287.22 C156.32,280.49 146.37,268.88 141.30,253.58 L 138.62 245.50 L 138.22 206.25 C137.95,179.38 138.15,167.00 138.87,167.00 C139.44,167.00 141.62,168.17 143.71,169.60 C149.81,173.79 157.91,176.99 164.95,178.01 C173.39,179.23 304.22,179.23 313.62,178.01 C321.32,177.01 329.98,173.64 335.33,169.56 C337.18,168.15 338.98,167.00 339.34,167.00 C339.70,167.00 340.00,184.67 340.00,206.27 C340.00,250.86 339.69,253.20 332.23,265.69 C322.89,281.31 311.29,288.57 283.00,296.49 C280.52,297.19 271.98,299.79 264.00,302.28 C236.97,310.71 241.28,310.28 227.00,305.93 ZM 252.59 269.98 C259.25,267.70 267.84,262.17 271.53,257.78 C274.82,253.88 274.75,249.74 271.37,247.07 C267.59,244.11 264.41,244.50 259.73,248.50 C251.22,255.78 241.36,258.48 232.41,255.98 C229.90,255.27 224.85,252.51 221.19,249.85 C213.85,244.50 210.79,243.91 207.31,247.17 C204.43,249.89 204.34,253.89 207.09,257.39 C210.07,261.18 220.23,267.85 226.32,270.01 C233.55,272.58 245.02,272.57 252.59,269.98 Z" fill="rgba(251,204,159,1)"/>
</g>
</svg>