<?xml version="1.0" encoding="UTF-8"?>
<svg version="1.1" xmlns="http://www.w3.org/2000/svg" width="629" height="790">
<path d="M0 0 C1.39439664 0.06665376 2.79169875 0.08538199 4.1875 0.0625 C5.445625 0.041875 6.70375 0.02125 8 0 C8 0.66 8 1.32 8 2 C8.71615479 2.03810791 9.43230957 2.07621582 10.17016602 2.11547852 C18.0077389 2.6367167 25.33055128 4.02192272 32.9375 5.9375 C34.79773804 6.39721191 34.79773804 6.39721191 36.69555664 6.86621094 C61.99831415 13.15952305 87.10424408 20.20311313 112.10522461 27.59667969 C113.26964836 27.93875961 113.26964836 27.93875961 114.45759583 28.28775024 C115.90976934 28.71447741 117.36099661 29.14444307 118.81108093 29.57821655 C121.65396189 30.41143443 124.0186944 31 127 31 C127.99 31.66 128.98 32.32 130 33 C131.86160261 33.74588074 133.72455765 34.48874569 135.59716797 35.20654297 C144.8818104 38.79393071 152.92384313 43.20602144 161 49 C162.44826172 50.03060547 162.44826172 50.03060547 163.92578125 51.08203125 C179.49304873 62.95014606 189.47719468 79.79418731 193 99 C193.41107437 103.40618254 193.47757321 107.76418111 193.4375 112.1875 C193.42614014 113.95915527 193.42614014 113.95915527 193.41455078 115.76660156 C193.04383646 135.56869932 186.46462007 152.86563845 176.33935547 169.74780273 C175.71311279 170.81623413 175.71311279 170.81623413 175.07421875 171.90625 C174.69869873 172.52822266 174.32317871 173.15019531 173.9362793 173.79101562 C170.95124967 180.83366179 171.89384022 189.16596779 171.94677734 196.63745117 C171.95497509 198.66177289 171.96119591 200.68609504 171.96735275 202.71042389 C171.97167936 204.0964212 171.97657739 205.48241684 171.9820329 206.86841017 C172.00780668 213.66031109 171.98007834 220.45158923 171.93994141 227.2434082 C171.93333181 228.41824359 171.92672222 229.59307898 171.91991234 230.80351543 C171.85932691 241.17321534 171.78804622 251.54285629 171.71247292 261.91245747 C171.65712654 269.52553416 171.60803925 277.13859876 171.56685698 284.75176555 C171.53327005 290.84831808 171.48930514 296.94475959 171.44193649 303.04121971 C171.42359198 305.59773862 171.40841295 308.15428253 171.39665604 310.71084023 C171.23537749 344.47708913 166.88229687 373.07821835 144.5625 399.6875 C144.09884033 400.2431665 143.63518066 400.79883301 143.1574707 401.37133789 C140.30609149 404.70650892 137.31481897 407.38100086 133.875 410.125 C131.87943692 411.82465837 131.87943692 411.82465837 131 414 C132.96277094 420.85026492 137.65609741 425.22093427 143.60839844 428.74291992 C148.38970257 431.25608192 153.3805159 433.26661511 158.375 435.3125 C160.70613335 436.28549054 163.03686143 437.25945261 165.3671875 438.234375 C166.50124023 438.70681641 167.63529297 439.17925781 168.80371094 439.66601562 C190.02783984 448.52399304 209.40236054 458.32453347 226.625 473.8125 C227.13466309 474.26874756 227.64432617 474.72499512 228.16943359 475.19506836 C230.79882599 477.62678567 232.48319565 479.778668 234 483 C234.66 483 235.32 483 236 483 C254.56325337 506.70432023 260.33344548 532.99539946 265.96126938 561.99847412 C266.66282999 565.60441168 267.37483062 569.20829054 268.08520508 572.8125 C269.34979908 579.23814924 270.60370055 585.66582661 271.85187054 592.0946846 C272.88082444 597.39293927 273.91967188 602.68920687 274.96081543 607.9850769 C275.70793172 611.79319805 276.4485757 615.60254631 277.18609619 619.41253662 C277.51351977 621.10218578 277.84251105 622.79153211 278.17327881 624.48052979 C279.77175729 632.66727241 281.20066477 640.8364442 282.19140625 649.12109375 C282.27210861 649.79531372 282.35281097 650.46953369 282.43595886 651.16418457 C285.54312546 679.06166026 279.5862229 708.26158469 262.5 730.9375 C261.35233445 732.30780736 260.18479618 733.66166652 259 735 C258.28972656 735.82886719 257.57945312 736.65773438 256.84765625 737.51171875 C239.97344348 756.8088954 217.58501912 768.5247782 192 771 C189.47783325 771.086293 186.95380743 771.12724336 184.43016529 771.12863445 C183.70895885 771.13038749 182.98775241 771.13214053 182.24469122 771.13394669 C179.83936219 771.13858121 177.43409429 771.13614779 175.02876282 771.13371277 C173.28220753 771.13558203 171.53565265 771.13788319 169.78909844 771.14057809 C164.99799914 771.14668834 160.20691731 771.14656341 155.415815 771.14538372 C150.2452401 771.14517951 145.0746708 771.15070036 139.90409851 771.15544128 C129.77679603 771.16374428 119.64949937 771.16649597 109.52219377 771.16705366 C101.28879899 771.16752901 93.05540612 771.16958472 84.82201195 771.17275429 C61.47201774 771.1815601 38.12202812 771.18617381 14.77203224 771.18542381 C13.51348474 771.18538386 12.25493725 771.1853439 10.95825195 771.18530273 C9.69816534 771.18526185 8.43807872 771.18522097 7.13980766 771.18517885 C-13.27866639 771.18477246 -33.697122 771.19434051 -54.11559071 771.2084411 C-75.08780821 771.22280965 -96.06001671 771.22971101 -117.03223926 771.22884732 C-128.80382079 771.22851551 -140.57538298 771.23125583 -152.34696007 771.24202538 C-162.37017501 771.25113669 -172.39336185 771.25330044 -182.41657915 771.24651595 C-187.5280125 771.24325388 -192.63939196 771.24318278 -197.75082016 771.2518692 C-202.43586817 771.25974895 -207.12081968 771.2582877 -211.80586538 771.24958507 C-213.49494506 771.24805333 -215.18403199 771.24985388 -216.8731031 771.25544515 C-241.71756624 771.33219763 -266.84449591 766.00539649 -286 749 C-286 748.34 -286 747.68 -286 747 C-286.56460938 746.72414063 -287.12921875 746.44828125 -287.7109375 746.1640625 C-301.87584249 738.96074904 -311.28679964 717.30263631 -316 703 C-317.15343944 698.97421503 -318.17865588 694.92727377 -319.140625 690.8515625 C-319.42421875 689.91054688 -319.7078125 688.96953125 -320 688 C-320.66 687.67 -321.32 687.34 -322 687 C-321.67 686.34 -321.34 685.68 -321 685 C-320.95003802 683.02927733 -320.96396381 681.05680567 -321.0078125 679.0859375 C-321.027229 677.86390625 -321.04664551 676.641875 -321.06665039 675.3828125 C-321.07713409 674.73086914 -321.0876178 674.07892578 -321.09841919 673.40722656 C-321.45107647 646.44493756 -316.22597567 620.86837485 -310.91455078 594.54562378 C-309.60095984 588.02794309 -308.31464079 581.50559679 -307.0509491 574.97805786 C-306.18763552 570.52108015 -305.31609761 566.06572916 -304.44363403 561.61053467 C-304.03020511 559.49107424 -303.61983175 557.37101497 -303.21286011 555.25030518 C-296.30582792 519.32597024 -296.30582792 519.32597024 -288.1875 505 C-287.54639282 503.83005493 -287.54639282 503.83005493 -286.89233398 502.63647461 C-268.94884905 470.61654942 -238.63443325 451.30653915 -204.85449219 438.87036133 C-202.81532205 438.14704746 -202.81532205 438.14704746 -202 436 C-200.00332694 435.6472851 -198.00233364 435.31901587 -196 435 C-185.22849497 432.01499445 -177.71807433 428.13149981 -171.46875 418.76953125 C-169.68092631 415.53698093 -169.68092631 415.53698093 -169 412 C-170.94125344 410.26526288 -172.94272868 408.5954349 -175 407 C-175 406.34 -175 405.68 -175 405 C-175.66 405 -176.32 405 -177 405 C-185.78557254 396.94453044 -192.16535623 385.72978342 -198 375.4375 C-198.38591309 374.75880859 -198.77182617 374.08011719 -199.16943359 373.38085938 C-200.89673146 370.26813281 -202.2257496 367.4622458 -203 364 C-203.309375 362.82050781 -203.61875 361.64101563 -203.9375 360.42578125 C-204.29183145 359.05473008 -204.6459932 357.68363504 -205 356.3125 C-205.17789063 355.64283203 -205.35578125 354.97316406 -205.5390625 354.28320312 C-208.03000032 344.55181544 -208.15720601 334.93119651 -208.18945312 324.9375 C-208.19741125 323.53519959 -208.2058004 322.13290156 -208.21458435 320.73060608 C-208.23254629 317.72528796 -208.24759604 314.71997477 -208.26036072 311.71463013 C-208.28074193 306.94570582 -208.30837599 302.17683972 -208.33703613 297.40795898 C-208.39693713 287.27200026 -208.44879123 277.13600576 -208.5 267 C-208.55527422 256.08105886 -208.61213374 245.16213567 -208.67754889 234.24324989 C-208.70102833 230.28741884 -208.72261861 226.33159695 -208.73963928 222.37573242 C-206.71787745 194.33655296 -206.71787745 194.33655296 -214.1875 168.75 C-215.01281285 167.42547432 -215.83439493 166.09861714 -216.65234375 164.76953125 C-217.05437012 164.1348291 -217.45639648 163.50012695 -217.87060547 162.84619141 C-230.58680419 142.05935727 -235.3066034 116.70144274 -230.03515625 92.921875 C-225.15195176 73.27267479 -210.71478145 55.59410259 -193.8203125 44.58203125 C-180.49184972 37.10553897 -166.47861963 31.80082112 -151.75 27.8125 C-144.7778308 25.8982532 -137.81666441 23.96106762 -130.88671875 21.8984375 C-116.0002579 17.47179887 -101.06660021 13.39352933 -86 9.625 C-85.16000458 9.41394623 -84.32000916 9.20289246 -83.45455933 8.98544312 C-62.69339572 3.78362913 -42.29236432 -0.10518039 -20.85864258 -0.63305664 C-18.64298621 -0.68861622 -16.42808714 -0.75865141 -14.21289062 -0.83007812 C-3.41448543 -1.13816181 -3.41448543 -1.13816181 0 0 Z " fill="#020101" transform="translate(343,12)"/>
<path d="M0 0 C1.39439664 0.06665376 2.79169875 0.08538199 4.1875 0.0625 C5.445625 0.041875 6.70375 0.02125 8 0 C8 0.66 8 1.32 8 2 C8.71615479 2.03810791 9.43230957 2.07621582 10.17016602 2.11547852 C18.0077389 2.6367167 25.33055128 4.02192272 32.9375 5.9375 C34.79773804 6.39721191 34.79773804 6.39721191 36.69555664 6.86621094 C61.99831415 13.15952305 87.10424408 20.20311313 112.10522461 27.59667969 C113.26964836 27.93875961 113.26964836 27.93875961 114.45759583 28.28775024 C115.90976934 28.71447741 117.36099661 29.14444307 118.81108093 29.57821655 C121.65396189 30.41143443 124.0186944 31 127 31 C127.99 31.66 128.98 32.32 130 33 C131.86160261 33.74588074 133.72455765 34.48874569 135.59716797 35.20654297 C144.8818104 38.79393071 152.92384313 43.20602144 161 49 C162.44826172 50.03060547 162.44826172 50.03060547 163.92578125 51.08203125 C179.49304873 62.95014606 189.47719468 79.79418731 193 99 C193.41107437 103.40618254 193.47757321 107.76418111 193.4375 112.1875 C193.42614014 113.95915527 193.42614014 113.95915527 193.41455078 115.76660156 C193.04383646 135.56869932 186.46462007 152.86563845 176.33935547 169.74780273 C175.71311279 170.81623413 175.71311279 170.81623413 175.07421875 171.90625 C174.69869873 172.52822266 174.32317871 173.15019531 173.9362793 173.79101562 C170.95124967 180.83366179 171.89384022 189.16596779 171.94677734 196.63745117 C171.95497509 198.66177289 171.96119591 200.68609504 171.96735275 202.71042389 C171.97167936 204.0964212 171.97657739 205.48241684 171.9820329 206.86841017 C172.00780668 213.66031109 171.98007834 220.45158923 171.93994141 227.2434082 C171.93333181 228.41824359 171.92672222 229.59307898 171.91991234 230.80351543 C171.85932691 241.17321534 171.78804622 251.54285629 171.71247292 261.91245747 C171.65712654 269.52553416 171.60803925 277.13859876 171.56685698 284.75176555 C171.53327005 290.84831808 171.48930514 296.94475959 171.44193649 303.04121971 C171.42359198 305.59773862 171.40841295 308.15428253 171.39665604 310.71084023 C171.23537749 344.47708913 166.88229687 373.07821835 144.5625 399.6875 C144.09884033 400.2431665 143.63518066 400.79883301 143.1574707 401.37133789 C140.30609149 404.70650892 137.31481897 407.38100086 133.875 410.125 C131.87943692 411.82465837 131.87943692 411.82465837 131 414 C132.96277094 420.85026492 137.65609741 425.22093427 143.60839844 428.74291992 C148.38970257 431.25608192 153.3805159 433.26661511 158.375 435.3125 C160.70613335 436.28549054 163.03686143 437.25945261 165.3671875 438.234375 C166.50124023 438.70681641 167.63529297 439.17925781 168.80371094 439.66601562 C190.02783984 448.52399304 209.40236054 458.32453347 226.625 473.8125 C227.13466309 474.26874756 227.64432617 474.72499512 228.16943359 475.19506836 C230.79882599 477.62678567 232.48319565 479.778668 234 483 C234.66 483 235.32 483 236 483 C254.56325337 506.70432023 260.33344548 532.99539946 265.96126938 561.99847412 C266.66282999 565.60441168 267.37483062 569.20829054 268.08520508 572.8125 C269.34979908 579.23814924 270.60370055 585.66582661 271.85187054 592.0946846 C272.88082444 597.39293927 273.91967188 602.68920687 274.96081543 607.9850769 C275.70793172 611.79319805 276.4485757 615.60254631 277.18609619 619.41253662 C277.51351977 621.10218578 277.84251105 622.79153211 278.17327881 624.48052979 C279.77175729 632.66727241 281.20066477 640.8364442 282.19140625 649.12109375 C282.27210861 649.79531372 282.35281097 650.46953369 282.43595886 651.16418457 C285.54312546 679.06166026 279.5862229 708.26158469 262.5 730.9375 C261.35233445 732.30780736 260.18479618 733.66166652 259 735 C258.28972656 735.82886719 257.57945312 736.65773438 256.84765625 737.51171875 C239.97344348 756.8088954 217.58501912 768.5247782 192 771 C189.47783325 771.086293 186.95380743 771.12724336 184.43016529 771.12863445 C183.70895885 771.13038749 182.98775241 771.13214053 182.24469122 771.13394669 C179.83936219 771.13858121 177.43409429 771.13614779 175.02876282 771.13371277 C173.28220753 771.13558203 171.53565265 771.13788319 169.78909844 771.14057809 C164.99799914 771.14668834 160.20691731 771.14656341 155.415815 771.14538372 C150.2452401 771.14517951 145.0746708 771.15070036 139.90409851 771.15544128 C129.77679603 771.16374428 119.64949937 771.16649597 109.52219377 771.16705366 C101.28879899 771.16752901 93.05540612 771.16958472 84.82201195 771.17275429 C61.47201774 771.1815601 38.12202812 771.18617381 14.77203224 771.18542381 C13.51348474 771.18538386 12.25493725 771.1853439 10.95825195 771.18530273 C9.69816534 771.18526185 8.43807872 771.18522097 7.13980766 771.18517885 C-13.27866639 771.18477246 -33.697122 771.19434051 -54.11559071 771.2084411 C-75.08780821 771.22280965 -96.06001671 771.22971101 -117.03223926 771.22884732 C-128.80382079 771.22851551 -140.57538298 771.23125583 -152.34696007 771.24202538 C-162.37017501 771.25113669 -172.39336185 771.25330044 -182.41657915 771.24651595 C-187.5280125 771.24325388 -192.63939196 771.24318278 -197.75082016 771.2518692 C-202.43586817 771.25974895 -207.12081968 771.2582877 -211.80586538 771.24958507 C-213.49494506 771.24805333 -215.18403199 771.24985388 -216.8731031 771.25544515 C-241.71756624 771.33219763 -266.84449591 766.00539649 -286 749 C-286 748.34 -286 747.68 -286 747 C-286.56460938 746.72414063 -287.12921875 746.44828125 -287.7109375 746.1640625 C-301.87584249 738.96074904 -311.28679964 717.30263631 -316 703 C-317.15343944 698.97421503 -318.17865588 694.92727377 -319.140625 690.8515625 C-319.42421875 689.91054688 -319.7078125 688.96953125 -320 688 C-320.66 687.67 -321.32 687.34 -322 687 C-321.67 686.34 -321.34 685.68 -321 685 C-320.95003802 683.02927733 -320.96396381 681.05680567 -321.0078125 679.0859375 C-321.027229 677.86390625 -321.04664551 676.641875 -321.06665039 675.3828125 C-321.07713409 674.73086914 -321.0876178 674.07892578 -321.09841919 673.40722656 C-321.45107647 646.44493756 -316.22597567 620.86837485 -310.91455078 594.54562378 C-309.60095984 588.02794309 -308.31464079 581.50559679 -307.0509491 574.97805786 C-306.18763552 570.52108015 -305.31609761 566.06572916 -304.44363403 561.61053467 C-304.03020511 559.49107424 -303.61983175 557.37101497 -303.21286011 555.25030518 C-296.30582792 519.32597024 -296.30582792 519.32597024 -288.1875 505 C-287.54639282 503.83005493 -287.54639282 503.83005493 -286.89233398 502.63647461 C-268.94884905 470.61654942 -238.63443325 451.30653915 -204.85449219 438.87036133 C-202.81532205 438.14704746 -202.81532205 438.14704746 -202 436 C-200.00332694 435.6472851 -198.00233364 435.31901587 -196 435 C-185.22849497 432.01499445 -177.71807433 428.13149981 -171.46875 418.76953125 C-169.68092631 415.53698093 -169.68092631 415.53698093 -169 412 C-170.94125344 410.26526288 -172.94272868 408.5954349 -175 407 C-175 406.34 -175 405.68 -175 405 C-175.66 405 -176.32 405 -177 405 C-185.78557254 396.94453044 -192.16535623 385.72978342 -198 375.4375 C-198.38591309 374.75880859 -198.77182617 374.08011719 -199.16943359 373.38085938 C-200.89673146 370.26813281 -202.2257496 367.4622458 -203 364 C-203.309375 362.82050781 -203.61875 361.64101563 -203.9375 360.42578125 C-204.29183145 359.05473008 -204.6459932 357.68363504 -205 356.3125 C-205.17789063 355.64283203 -205.35578125 354.97316406 -205.5390625 354.28320312 C-208.03000032 344.55181544 -208.15720601 334.93119651 -208.18945312 324.9375 C-208.19741125 323.53519959 -208.2058004 322.13290156 -208.21458435 320.73060608 C-208.23254629 317.72528796 -208.24759604 314.71997477 -208.26036072 311.71463013 C-208.28074193 306.94570582 -208.30837599 302.17683972 -208.33703613 297.40795898 C-208.39693713 287.27200026 -208.44879123 277.13600576 -208.5 267 C-208.55527422 256.08105886 -208.61213374 245.16213567 -208.67754889 234.24324989 C-208.70102833 230.28741884 -208.72261861 226.33159695 -208.73963928 222.37573242 C-206.71787745 194.33655296 -206.71787745 194.33655296 -214.1875 168.75 C-215.01281285 167.42547432 -215.83439493 166.09861714 -216.65234375 164.76953125 C-217.05437012 164.1348291 -217.45639648 163.50012695 -217.87060547 162.84619141 C-230.58680419 142.05935727 -235.3066034 116.70144274 -230.03515625 92.921875 C-225.15195176 73.27267479 -210.71478145 55.59410259 -193.8203125 44.58203125 C-180.49184972 37.10553897 -166.47861963 31.80082112 -151.75 27.8125 C-144.7778308 25.8982532 -137.81666441 23.96106762 -130.88671875 21.8984375 C-116.0002579 17.47179887 -101.06660021 13.39352933 -86 9.625 C-85.16000458 9.41394623 -84.32000916 9.20289246 -83.45455933 8.98544312 C-62.69339572 3.78362913 -42.29236432 -0.10518039 -20.85864258 -0.63305664 C-18.64298621 -0.68861622 -16.42808714 -0.75865141 -14.21289062 -0.83007812 C-3.41448543 -1.13816181 -3.41448543 -1.13816181 0 0 Z M-102.01623535 33.1628418 C-104.8951101 33.94135349 -107.77641344 34.71065167 -110.65770149 35.48017406 C-125.18627813 39.36435224 -139.65889597 43.39892947 -154.03515625 47.81640625 C-155.21039352 48.17478577 -156.3856308 48.53316528 -157.59648132 48.90240479 C-166.60675145 51.71741293 -174.86928079 55.21782636 -183 60 C-183.85851562 60.48855469 -184.71703125 60.97710937 -185.6015625 61.48046875 C-195.3543239 67.4628327 -202.82409221 75.85977813 -208 86 C-208.58394531 87.12728516 -208.58394531 87.12728516 -209.1796875 88.27734375 C-216.11897849 102.68776919 -215.78745069 119.7601517 -210.82666016 134.75439453 C-207.23035887 144.52367369 -202.79543081 154.24346616 -196.59554589 162.61799794 C-190.66040537 170.92479666 -189.73736434 178.32337971 -189.93408203 188.37426758 C-189.93166259 189.96450348 -189.92523073 191.55473747 -189.91514587 193.14494324 C-189.90215754 196.54152407 -189.91715292 199.93635051 -189.95492935 203.33274269 C-190.01482786 208.71980518 -190.01145302 214.10577012 -190.0007019 219.49308777 C-189.99118153 228.02564571 -190.0246327 236.55741299 -190.07607162 245.08980054 C-190.16665625 260.34255355 -190.18394835 275.59548276 -190.18526542 290.84847564 C-190.18742254 296.18618413 -190.2082178 301.52338397 -190.24545598 306.86095965 C-190.26633739 310.20177967 -190.27496201 313.54256374 -190.28108406 316.88344002 C-190.28658562 318.41310745 -190.29722423 319.94276811 -190.31386757 321.47235489 C-190.59258202 347.79057434 -183.19511181 370.22075979 -164.69140625 389.3125 C-157.96069682 396.03344062 -151.35394975 401.39573542 -143 406 C-145.64142187 410.73975116 -148.45569743 415.27661437 -151.546875 419.73828125 C-152.39984049 420.9823527 -153.25270218 422.22649532 -154.10546875 423.47070312 C-155.43600814 425.40520158 -156.76804805 427.33864001 -158.10205078 429.27075195 C-159.4001445 431.15305883 -160.6925721 433.03915383 -161.984375 434.92578125 C-162.38742859 435.50596512 -162.79048218 436.08614899 -163.20574951 436.68391418 C-165.34521311 439.57679589 -165.34521311 439.57679589 -166 443 C-167.84870911 443.71272278 -167.84870911 443.71272278 -170.39770508 444.37817383 C-175.6734694 445.85978638 -180.60895141 447.78399977 -185.63671875 449.94921875 C-186.51922806 450.32552933 -187.40173737 450.7018399 -188.31098938 451.08955383 C-190.16673705 451.88276182 -192.02131449 452.67871279 -193.87475586 453.47729492 C-196.65951517 454.67545931 -199.44951446 455.86071892 -202.24023438 457.04492188 C-230.01970247 468.91318522 -256.14665661 483.55218353 -271 511 C-271.527146 511.95398682 -271.527146 511.95398682 -272.06494141 512.92724609 C-278.33655429 524.49186199 -281.41090035 536.17235817 -284 549 C-284.2742064 550.33360583 -284.54897838 551.66709546 -284.82421875 553.00048828 C-287.86225134 567.74434801 -290.80927297 582.50759599 -293.43505859 597.33105469 C-294.49336194 603.28949372 -295.61516976 609.23382818 -296.76171875 615.17578125 C-297.08143515 616.83934491 -297.40109609 618.50291923 -297.72070312 620.16650391 C-298.19816928 622.65107179 -298.67729324 625.13525006 -299.16235352 627.61834717 C-305.01390799 657.58411764 -306.89006018 689.08806268 -289.81835938 715.85253906 C-277.91206369 733.38499224 -261.2106666 744.80226179 -240.6105957 749.55078125 C-237.9863306 750.00235216 -235.57820835 750.11397674 -232.91796875 750.09765625 C-231.98662109 750.09443359 -231.05527344 750.09121094 -230.09570312 750.08789062 C-229.13599609 750.07951172 -228.17628906 750.07113281 -227.1875 750.0625 C-226.20845703 750.05798828 -225.22941406 750.05347656 -224.22070312 750.04882812 C-221.81373889 750.03708684 -219.40690143 750.02066419 -217 750 C-217.26554687 748.86304688 -217.53109375 747.72609375 -217.8046875 746.5546875 C-218.16175647 744.99485989 -218.51850995 743.43496002 -218.875 741.875 C-219.13603516 740.76318359 -219.13603516 740.76318359 -219.40234375 739.62890625 C-222.41245015 726.36214102 -223.37849399 713.42444534 -223.3125 699.875 C-223.31001251 699.05818756 -223.30752502 698.24137512 -223.30496216 697.39981079 C-223.14750563 663.9466382 -214.29818537 633.44718123 -197.03320312 604.74072266 C-196.0851752 603.1435017 -195.18829162 601.51621197 -194.296875 599.88671875 C-192.06073827 596.13630497 -190.46498245 593.57873213 -186.3203125 591.94140625 C-184.28503209 591.47355608 -182.23810458 591.05416763 -180.18359375 590.6796875 C-167.92521402 588.06256103 -157.89985637 579.78454841 -151.125 569.5 C-146.91168936 562.36519566 -143.55154194 556.27572165 -143.56640625 547.84765625 C-143.37949219 547.23792969 -143.19257813 546.62820313 -143 546 C-141.34953755 545.29417004 -139.67942399 544.63384327 -138 544 C-136.45224567 543.20102998 -134.91733314 542.37680955 -133.39453125 541.53125 C-110.31744276 528.94584301 -86.73707233 520.37285441 -61 515 C-59.64237549 514.71189453 -59.64237549 514.71189453 -58.25732422 514.41796875 C-45.32899865 511.81591667 -32.32412013 511.72572879 -19.1875 511.6875 C-18.36373871 511.68364288 -17.53997742 511.67978577 -16.69125366 511.67581177 C-1.41845626 511.64059336 13.44274118 512.88102011 28.375 516.25 C29.34195801 516.46543457 30.30891602 516.68086914 31.30517578 516.90283203 C51.25962486 521.48302469 70.11367217 528.65144297 88.25 538.11328125 C90.67478692 539.36870719 93.01006728 540.40203336 95.5625 541.41796875 C103.36904551 544.61752646 103.36904551 544.61752646 105.2265625 548.6875 C105.70491896 550.74811242 106.11288027 552.82619709 106.453125 554.9140625 C108.66984277 567.42268422 118.57694167 577.76590895 128.44921875 585.00390625 C132.42074001 587.47591703 136.70895604 588.47623757 141.1875 589.6875 C147.82799036 591.55970269 151.61856511 593.61492328 155.1875 599.625 C156.21239283 601.4786478 157.18246341 603.34472537 158.11474609 605.24658203 C159.40157157 607.79539078 160.96932879 610.15419789 162.5 612.5625 C175.55642359 635.2746043 185.03972337 662.83708555 185.203125 689.20703125 C185.21004868 689.96610275 185.21697235 690.72517426 185.22410583 691.50724792 C185.24129072 693.94238513 185.24769235 696.37730502 185.25 698.8125 C185.25133942 699.64225342 185.25267883 700.47200684 185.25405884 701.3269043 C185.2497943 713.48288622 184.71853258 725.10948139 182 737 C181.71008323 738.33705464 181.42101411 739.67429336 181.1328125 741.01171875 C180.46149996 744.01983826 179.75629751 747.01235665 179 750 C201.60576174 750.95182155 220.18464395 746.34830858 237.57421875 731.27734375 C254.61568877 715.278669 263.90016243 693.64902129 265.203125 670.37109375 C265.29665083 662.52271817 264.89737305 654.91537046 263.8046875 647.140625 C263.67385773 646.19926193 263.54302795 645.25789886 263.40823364 644.28800964 C261.62536937 631.89284902 259.24396003 619.6063194 256.875 607.3125 C256.51483795 605.43152115 256.51483795 605.43152115 256.1473999 603.51254272 C253.08022094 587.49898582 249.96818374 571.49330484 246.68218994 555.52304077 C246.31725306 553.74774616 245.95496927 551.97190362 245.59564209 550.19546509 C242.82392133 536.54367913 239.86021987 522.71226341 232.625 510.625 C232.23417236 509.9556543 231.84334473 509.28630859 231.44067383 508.59667969 C215.78919263 482.25177898 190.05158393 467.83814533 162.5625 456.375 C161.0927417 455.75344828 159.62333995 455.13105276 158.15429688 454.5078125 C156.68755271 453.88789611 155.22075601 453.268104 153.75390625 452.6484375 C153.03652786 452.34408783 152.31914948 452.03973816 151.58003235 451.72616577 C147.84666617 450.15332589 144.10170717 448.65036165 140.3034668 447.24072266 C139.53755722 446.94831696 138.77164764 446.65591125 137.98252869 446.35464478 C136.53488489 445.80431709 135.08025892 445.27185189 133.61793518 444.7618103 C126.72666049 442.1070729 123.62248195 436.8676579 120.4296875 430.43359375 C117.42104956 424.71667043 113.53752851 419.65310313 109.66870117 414.49658203 C109.1760376 413.82095215 108.68337402 413.14532227 108.17578125 412.44921875 C107.50929565 411.55722778 107.50929565 411.55722778 106.8293457 410.6472168 C106.55566162 410.10363525 106.28197754 409.56005371 106 409 C107.26111901 405.21664297 108.67627743 404.59793712 111.9375 402.375 C117.70143334 398.30062429 122.85747441 393.82333434 128 389 C128.90492188 388.2265625 128.90492188 388.2265625 129.828125 387.4375 C138.69061448 379.48610757 144.71354632 368.07661989 148.5 356.9375 C148.73082275 356.2674292 148.96164551 355.5973584 149.19946289 354.90698242 C153.06300974 342.51113129 153.28591241 329.49421737 153.19189453 316.63232422 C153.18808416 315.05516767 153.18528167 313.47800842 153.18339539 311.90084839 C153.17800232 308.5370814 153.16709051 305.17339579 153.15213394 301.80965805 C153.12997408 296.47847077 153.1297747 291.14741638 153.13400269 285.81619263 C153.13519561 283.98155786 153.13636463 282.14692308 153.1375103 280.31228828 C153.13809055 279.39441292 153.1386708 278.47653756 153.13926864 277.53084779 C153.14526821 265.14398279 153.13283259 252.75736065 153.07910156 240.37060547 C153.04287697 231.97906914 153.03527588 223.58801964 153.05959976 215.19643414 C153.07123048 210.76979972 153.06844229 206.34425791 153.03009415 201.91775131 C152.99413719 197.75563906 152.99589391 193.59518034 153.02532387 189.43303299 C153.02951017 187.91620077 153.02031386 186.39925561 152.99589729 184.88261414 C152.82451115 173.54033316 155.47892914 167.05003335 162 158 C163.52125475 155.33874846 164.90501307 152.62884803 166.25 149.875 C166.58080566 149.20178711 166.91161133 148.52857422 167.25244141 147.83496094 C175.22234657 131.36041597 179.31526265 113.02409495 174.09765625 94.96875 C167.20880951 76.3369937 153.44602002 63.23662589 135.6484375 54.98828125 C115.32896249 46.05659603 93.2135616 41.0454911 71.83691406 35.30322266 C68.12138298 34.30442694 64.40989926 33.29187486 60.70066833 32.2699585 C1.47399856 15.95517999 -43.1895543 17.2030109 -102.01623535 33.1628418 Z " fill="#FCFDFC" transform="translate(343,12)"/>
<path d="M0 0 C2.66569048 3.50936433 2.42821626 6.71015535 2.35211182 10.93914795 C2.35269592 11.78829269 2.35328003 12.63743744 2.35388184 13.51231384 C2.35109791 16.31549132 2.31999171 19.11760184 2.28863525 21.92059326 C2.28117395 23.86543192 2.2754805 25.81027809 2.27148438 27.75512695 C2.25621933 32.87138666 2.21692986 37.98719141 2.17266846 43.10327148 C2.13173462 48.32486822 2.11347738 53.54653854 2.09332275 58.76824951 C2.05043658 69.01193887 1.98217457 79.25529072 1.89801025 89.49871826 C2.55801025 89.16871826 3.21801025 88.83871826 3.89801025 88.49871826 C5.23784935 88.40407416 6.58217794 88.36799677 7.925354 88.36590576 C8.71748291 88.3646167 9.50961182 88.36332764 10.32574463 88.36199951 C11.56807861 88.36780029 11.56807861 88.36780029 12.83551025 88.37371826 C13.65986572 88.36985107 14.48422119 88.36598389 15.33355713 88.36199951 C16.1269751 88.36328857 16.92039307 88.36457764 17.737854 88.36590576 C18.46351563 88.36703369 19.18917725 88.36816162 19.93682861 88.36932373 C21.89801025 88.49871826 21.89801025 88.49871826 24.89801025 89.49871826 C24.88912781 88.41765808 24.88024536 87.3365979 24.87109375 86.22277832 C24.79004734 76.04051107 24.73006379 65.85830917 24.69076157 55.67579269 C24.66987664 50.44068725 24.64154229 45.20584195 24.59625244 39.97088623 C24.55282725 34.91991871 24.52887997 29.8692016 24.51850128 24.81806183 C24.51110395 22.8898957 24.49665881 20.96174345 24.47509003 19.03368378 C24.44610019 16.33520267 24.44205238 13.63775944 24.44390869 10.93914795 C24.42952759 10.1400148 24.41514648 9.34088165 24.40032959 8.51753235 C24.42698764 4.94191133 24.59414977 2.90555923 26.7641449 0.00013733 C32.14941118 -3.78901528 40.6505343 -1.65547582 46.800354 -0.65362549 C48.81533791 -0.26525066 50.82708355 0.14024639 52.83551025 0.56121826 C53.91526123 0.78454834 54.99501221 1.00787842 56.10748291 1.23797607 C90.4593152 8.6520406 120.47015819 25.3698122 145.89801025 49.49871826 C146.85449463 50.40235107 147.810979 51.30598389 148.79644775 52.23699951 C170.99055318 73.5915607 185.68661235 99.7088199 193.64801025 129.37371826 C193.85901367 130.15851563 194.07001709 130.94331299 194.28741455 131.75189209 C196.90045909 141.85988177 197.13809549 151.73567208 197.14801025 162.12371826 C197.14901733 162.85459656 197.15002441 163.58547485 197.15106201 164.33850098 C197.1401201 176.11747162 196.51490119 187.568677 194.28961182 199.16522217 C193.89861041 201.495142 193.70662828 203.77957438 193.54644775 206.13543701 C193.11627972 210.26364742 192.62534718 213.20440807 189.89801025 216.49871826 C183.18217257 218.63570895 175.83517923 218.04289901 168.89801025 217.49871826 C169.90896958 212.85579393 170.95038874 208.23014753 172.11676025 203.62371826 C175.27865423 191.04919343 177.9913687 178.52988506 177.89801025 165.49871826 C177.16203613 165.67411133 176.42606201 165.84950439 175.66778564 166.0302124 C160.63305704 169.60230562 145.58025895 173.05391797 130.46051025 176.24871826 C129.78843536 176.39092804 129.11636047 176.53313782 128.42391968 176.67965698 C123.91776439 177.63149248 119.40852101 178.56776815 114.89801025 179.49871826 C114.21551208 179.64124023 113.53301392 179.78376221 112.82983398 179.93060303 C110.77914077 180.35833081 108.72740929 180.78070461 106.675354 181.20184326 C105.47 181.45095459 104.264646 181.70006592 103.02276611 181.95672607 C99.89801025 182.49871826 99.89801025 182.49871826 95.89801025 182.49871826 C95.88383057 183.08137451 95.86965088 183.66403076 95.8550415 184.26434326 C95.16023123 196.20756855 89.42424557 208.97248294 80.89801025 217.49871826 C79.04431414 217.58609471 77.18733485 217.60569979 75.331604 217.59637451 C74.20689697 217.59315186 73.08218994 217.5899292 71.92340088 217.58660889 C70.73939697 217.57822998 69.55539307 217.56985107 68.33551025 217.56121826 C67.14763916 217.55670654 65.95976807 217.55219482 64.73590088 217.54754639 C61.78988799 217.53571501 58.84397345 217.51923113 55.89801025 217.49871826 C56.22801025 216.83871826 56.55801025 216.17871826 56.89801025 215.49871826 C57.55801025 215.49871826 58.21801025 215.49871826 58.89801025 215.49871826 C59.5915772 214.17917777 60.25293287 212.84262949 60.89801025 211.49871826 C61.95847411 210.16767214 63.04415581 208.85650693 64.14801025 207.56121826 C76.13460073 192.32825953 78.4347726 174.25573679 76.89801025 155.49871826 C74.72547546 140.13309696 66.17624156 127.24275384 54.4175415 117.42840576 C39.24280802 106.28257608 21.29347865 102.2710731 2.74176025 104.79168701 C-14.85665896 107.84514408 -29.34871293 117.17322637 -40.03948975 131.37371826 C-49.7763074 146.40641478 -52.16643862 164.87351565 -49.10198975 182.31121826 C-46.07355657 194.96020894 -40.10488194 205.36477148 -31.00823975 214.55731201 C-29.10198975 216.49871826 -29.10198975 216.49871826 -29.10198975 217.49871826 C-32.97596663 217.7320363 -36.84813399 217.87344956 -40.72698975 217.99871826 C-41.82140381 218.06574951 -42.91581787 218.13278076 -44.043396 218.20184326 C-51.99371761 218.39457833 -51.99371761 218.39457833 -55.10443115 215.88006592 C-56.6748482 213.82591954 -57.91124342 211.79118315 -59.10198975 209.49871826 C-59.68206787 208.53707764 -60.262146 207.57543701 -60.85980225 206.58465576 C-63.617055 201.11741744 -65.34604847 196.34952773 -66.43792725 190.31121826 C-67.81563518 185.17490416 -67.81563518 185.17490416 -71.74700928 181.93475342 C-75.37389876 181.00671717 -78.87866251 180.51677319 -82.60198975 180.12371826 C-83.97070623 179.92922782 -85.33831817 179.72682081 -86.70477295 179.51702881 C-88.87298087 179.18423889 -91.04077475 178.85575963 -93.21290588 178.54948425 C-101.21849909 177.40905755 -109.06661234 175.65148833 -116.94476318 173.84729004 C-119.2338236 173.32394514 -121.52486542 172.81043183 -123.8168335 172.29998779 C-146.74083091 167.17929768 -146.74083091 167.17929768 -150.10198975 165.49871826 C-148.89899201 182.89729741 -146.08111853 199.7633132 -141.10198975 216.49871826 C-155.50672817 218.46059987 -155.50672817 218.46059987 -162.10198975 216.49871826 C-165.31605138 212.33426206 -165.57728403 208.02564366 -165.90570068 202.93621826 C-166.10198022 200.49883659 -166.48735014 198.17927589 -166.95355225 195.77996826 C-171.02123818 174.06901982 -170.47019276 151.11633231 -166.10198975 129.49871826 C-165.9011377 128.49228271 -165.9011377 128.49228271 -165.69622803 127.46551514 C-161.23129428 106.18537031 -150.61854868 86.33397703 -137.10198975 69.49871826 C-136.68578369 68.97954834 -136.26957764 68.46037842 -135.84075928 67.92547607 C-124.99717143 54.49852687 -113.06199363 42.66782598 -99.10198975 32.49871826 C-98.53319092 32.08025635 -97.96439209 31.66179443 -97.37835693 31.23065186 C-80.48501586 18.95111891 -21.27675569 -15.1962705 0 0 Z " fill="#020101" transform="translate(310.10198974609375,545.5012817382813)"/>
<path d="M0 0 C2.81651928 1.35946467 4.95054528 2.7073697 7.24609375 4.8359375 C10.91161032 8.04801826 14.75023357 10.38040876 19.0625 12.625 C20.16525269 13.20411133 20.16525269 13.20411133 21.2902832 13.79492188 C32.41150905 19.44486432 44.00147195 22.15434837 56.47238159 22.14044189 C57.73108084 22.14489858 57.73108084 22.14489858 59.01520836 22.1494453 C61.81988217 22.15809897 64.62451313 22.15963775 67.42919922 22.16113281 C69.4435078 22.16576353 71.4578155 22.17078853 73.47212219 22.17617798 C78.9416747 22.18928388 84.41121494 22.195744 89.8807807 22.20018864 C93.30316297 22.20312369 96.72554192 22.20722943 100.14792252 22.21169281 C110.8704371 22.22536609 121.59294406 22.23503226 132.31546676 22.2388947 C144.66454554 22.24336815 157.01351323 22.26088365 169.36255825 22.2898953 C178.92463589 22.31157386 188.48668244 22.32160235 198.04878438 22.32293582 C203.75128462 22.32397989 209.45368042 22.329802 215.15615463 22.34775543 C220.52913766 22.36434199 225.90193894 22.36634066 231.27493858 22.35761642 C233.23554792 22.35685155 235.19616745 22.36111526 237.15675163 22.37107468 C261.02410109 22.48510039 283.10459471 18.51334831 302 3 C303.33065074 1.99643317 304.66362346 0.99592948 306 0 C306.07002015 9.50241672 306.12307197 19.00474239 306.15543652 28.50736237 C306.17098278 32.92150594 306.19201474 37.3354709 306.22631836 41.74951172 C306.25931142 46.02246311 306.2769356 50.2952445 306.28463173 54.5683136 C306.29010458 56.18511119 306.30078749 57.80190123 306.31719017 59.41862488 C306.52033002 80.30319758 303.26571866 98.85721309 289 115 C288.07960938 116.22009766 288.07960938 116.22009766 287.140625 117.46484375 C284.66748299 120.39380208 281.90763182 122.68942338 278.875 125 C278.35679687 125.4125 277.83859375 125.825 277.3046875 126.25 C268.94397297 132.68131887 259.19302476 136.20704311 249.3203125 139.640625 C248.10884552 140.06748596 246.89737854 140.49434692 245.64920044 140.93414307 C241.7696659 142.29963362 237.88518878 143.65069787 234 145 C232.71479225 145.44715317 231.42959525 145.89433724 230.14440918 146.34155273 C221.71935746 149.27099188 213.28566977 152.17504825 204.8493042 155.07171631 C202.85987683 155.75519565 200.87079372 156.43966711 198.88183594 157.12451172 C198.22320934 157.35128853 197.56458275 157.57806534 196.88599777 157.81171417 C195.56628948 158.26613129 194.2465898 158.72057342 192.92689896 159.1750412 C188.52783457 160.68904565 184.12527114 162.19256058 179.72167969 163.69335938 C175.60501017 165.09803524 171.50160963 166.53064084 167.41113281 168.00976562 C166.58920441 168.30087219 165.767276 168.59197876 164.92044067 168.89190674 C163.469143 169.40655295 162.02207773 169.93342811 160.58126831 170.47674561 C153.03601994 173.11473557 146.94404675 171.20598901 139.6171875 168.62890625 C138.93344559 168.39126556 138.24970367 168.15362488 137.54524231 167.90878296 C135.31929954 167.13372308 133.09724995 166.34807783 130.875 165.5625 C128.51218194 164.7368991 126.14836888 163.91419711 123.78440857 163.09187317 C122.1823644 162.53458589 120.58060948 161.9764664 118.97914124 161.41752625 C111.5761037 158.83814578 104.13532838 156.38416082 96.6875 153.9375 C86.39825249 150.53366775 76.17866686 146.96894616 66 143.25 C64.80205811 142.81421631 63.60411621 142.37843262 62.36987305 141.92944336 C38.72975948 133.21158381 19.17649255 123.13809696 7 100 C0.46980067 85.31189586 -0.15302197 70.42832338 -0.09765625 54.58984375 C-0.09578796 53.0108698 -0.094366 51.43189527 -0.09336853 49.85292053 C-0.0895757 45.72496908 -0.07977353 41.59705359 -0.06866455 37.46911621 C-0.0583804 33.24569179 -0.05385599 29.02226149 -0.04882812 24.79882812 C-0.03814793 16.5325357 -0.021111 8.26627234 0 0 Z " fill="#FDD49B" transform="translate(171,269)"/>
<path d="M0 0 C1.68754395 0.02018188 1.68754395 0.02018188 3.40917969 0.04077148 C37.86743982 0.65840082 72.07564725 12.60622369 105.1159668 21.54901123 C107.75201103 22.26230787 110.38865013 22.97336452 113.02539062 23.68408203 C116.71630673 24.68071449 120.40409541 25.68810789 124.08917236 26.70611572 C125.96875378 27.22416187 127.85029757 27.73507242 129.73193359 28.24560547 C147.09753643 33.10542806 164.82145264 39.51099237 174.4375 55.86328125 C180.20387916 66.92096857 180.51566471 79.07732852 177.1015625 91.05859375 C175.68208315 95.02646725 174.06753308 98.85743396 172.3125 102.6875 C172.01859375 103.33436768 171.7246875 103.98123535 171.421875 104.64770508 C170.76822483 106.00864592 170.06299427 107.34573133 169.31466007 108.65699577 C167.81819335 111.38016596 167.81819335 111.38016596 166.76278591 114.76567268 C165.00585379 119.16558024 162.93541697 122.6376235 158.9375 125.3125 C150.22330808 127.98070331 140.61443966 127.27346197 131.57754409 127.17196345 C127.76315916 127.14431882 123.94975123 127.19740415 120.13562012 127.23983765 C112.67123938 127.30970596 105.20877269 127.30381566 97.74421281 127.27011071 C91.67597368 127.24392978 85.60828228 127.24441604 79.5400219 127.26379776 C78.24314975 127.26788182 78.24314975 127.26788182 76.92007817 127.27204839 C75.16352813 127.27766931 73.40697825 127.28333972 71.65042853 127.28905906 C55.18877577 127.33929512 38.72819213 127.30224987 22.26665276 127.2362857 C8.15225515 127.18191902 -5.96022224 127.20681796 -20.07446289 127.28857422 C-36.47672459 127.38356998 -52.8778026 127.4259518 -69.2803331 127.38730061 C-71.03062393 127.38334435 -72.78091494 127.3794689 -74.53120613 127.3756752 C-75.39231063 127.37379677 -76.25341514 127.37191834 -77.14061372 127.36998298 C-83.19873908 127.36048658 -89.25600719 127.38878132 -95.31396294 127.43209457 C-102.70166725 127.48404145 -110.08672467 127.47907366 -117.47424965 127.4017068 C-121.24208833 127.36371155 -125.0053663 127.35098958 -128.77306557 127.40820312 C-150.71345787 127.71601924 -150.71345787 127.71601924 -156.21520352 123.76756144 C-159.61998856 120.10757014 -161.60932285 116.06031725 -163.285514 111.38927102 C-164.54877736 108.01275106 -166.30561024 104.92898113 -168 101.75 C-174.35425768 88.15937588 -176.13079772 73.57948753 -171.0625 59.3125 C-165.73508018 48.46997348 -158.08697127 41.57779975 -147.5 36.125 C-146.90646729 35.81602783 -146.31293457 35.50705566 -145.70141602 35.1887207 C-131.098241 28.09714919 -114.22981504 24.80851297 -98.625 20.625 C-97.49420013 20.32113373 -96.36340027 20.01726746 -95.19833374 19.70419312 C-79.62792502 15.52587873 -64.03257056 11.46428982 -48.375 7.625 C-47.55766388 7.42298981 -46.74032776 7.22097961 -45.89822388 7.0128479 C-30.72337617 3.27451969 -15.72414471 -0.27266596 0 0 Z " fill="#F0763D" transform="translate(321.0625,47.6875)"/>
<path d="M0 0 C99.99 0 199.98 0 303 0 C297.91640641 15.25078077 290.57799037 24.93414853 276.3125 32.3125 C269.05773734 35.89294979 262.0202575 37.80926238 254 39 C252.93947418 39.1721295 251.87894836 39.344259 250.7862854 39.52160454 C246.91308953 40.0109811 243.13078986 40.13959029 239.23583984 40.12698364 C238.48498517 40.12854363 237.7341305 40.13010362 236.96052265 40.13171089 C234.46064059 40.13567888 231.96081995 40.13254749 229.4609375 40.12939453 C227.66160548 40.13075053 225.86227373 40.13253158 224.0629425 40.13470459 C219.18439934 40.13925792 214.30587736 40.13749728 209.42733383 40.1343255 C204.30808201 40.13178795 199.18883197 40.13414362 194.06958008 40.13571167 C185.46484045 40.1375306 176.86010941 40.13513565 168.25537109 40.13037109 C158.33815443 40.12494284 148.42095837 40.12668177 138.50374222 40.1321975 C129.96840363 40.13675304 121.4330712 40.13736685 112.89773178 40.13475883 C107.80956434 40.13320767 102.72140655 40.13296996 97.63323975 40.13629532 C92.8397597 40.13920911 88.04630585 40.13713464 83.2528286 40.13140106 C81.50466136 40.13009152 79.75649188 40.13043639 78.00832558 40.13266373 C53.3120344 40.16119874 30.07796249 38.79069512 11 21 C5.43977761 14.85511903 1.62437926 8.1218963 0 0 Z " fill="#F27A3C" transform="translate(173,235)"/>
<path d="M0 0 C9.51150154 0.96306402 9.51150154 0.96306402 13.578125 2.015625 C14.33955811 2.21196533 15.10099121 2.40830566 15.88549805 2.6105957 C17.05592651 2.92710083 17.05592651 2.92710083 18.25 3.25 C19.07991455 3.47324951 19.9098291 3.69649902 20.76489258 3.92651367 C49.3480328 11.80397506 73.69884422 27.73869354 95 48 C95.64453125 48.59167969 96.2890625 49.18335938 96.953125 49.79296875 C111.04227573 63.12499222 122.5712077 81.77152563 129 100 C129 100.66 129 101.32 129 102 C121.10696679 102.81011621 113.20916631 103.55051597 105.30540466 104.246521 C100.26668635 104.69395859 95.2323325 105.17286628 90.19921875 105.6796875 C84.02777198 106.29932602 77.85308557 106.86769876 71.67434692 107.4095459 C69.18583613 107.63626744 66.69880014 107.87981351 64.21359253 108.14025879 C60.67482551 108.50799802 57.13536228 108.81494055 53.58984375 109.109375 C52.52431274 109.23380981 51.45878174 109.35824463 50.36096191 109.4864502 C47.31968913 109.70328952 44.95349133 109.76874301 42 109 C38.99617872 106.36525471 37.06193851 103.39256333 35 100 C29.28398584 93.40531053 23.15306958 88.45011537 15.6640625 83.984375 C15.12538544 83.66278412 14.58670837 83.34119324 14.03170776 83.00985718 C11.90238359 81.88253835 11.90238359 81.88253835 9.05838013 81.0987854 C5.41171194 79.79729177 2.90676563 78.57856004 0 76 C-1.74026128 70.27965443 -1.40134529 64.714172 -1.171875 58.7890625 C-1.14947741 57.09376033 -1.1324034 55.39838019 -1.12042236 53.70297241 C-1.07472018 49.25221173 -0.95698009 44.80619321 -0.82397461 40.3572998 C-0.70094363 35.81307142 -0.64635549 31.26807198 -0.5859375 26.72265625 C-0.45745225 17.81302656 -0.25281513 8.90690834 0 0 Z " fill="#FC9B54" transform="translate(352,562)"/>
<path d="M0 0 C0.02567854 7.76976808 0.04300233 15.53952494 0.05493164 23.30932617 C0.05934032 25.94411255 0.06670027 28.57884204 0.07543945 31.21362305 C0.09959508 38.69192141 0.08929569 46.16850562 0.02264404 53.64657593 C0.00816984 55.79010344 0.00468557 57.93375164 0.01544189 60.07730103 C0.02700156 62.74328343 -0.00482389 65.4048021 -0.05078125 68.0703125 C-0.03740219 68.82415726 -0.02402313 69.57800201 -0.01023865 70.35469055 C-0.10115828 73.265204 -0.35324419 75.38855855 -2.52246094 77.43933105 C-5.69661613 79.51019113 -9.05386817 81.06366642 -12.6484375 82.265625 C-16.9267019 83.86129185 -20.30594434 85.98857819 -23.875 88.8125 C-24.39916504 89.22653076 -24.92333008 89.64056152 -25.46337891 90.06713867 C-31.21574831 94.78357492 -37.64004804 100.55247554 -41.14648438 107.16064453 C-43 109 -43 109 -46.39013672 109.2421875 C-47.8216818 109.14153373 -49.2516759 109.01725108 -50.6796875 108.875 C-51.46429855 108.81355301 -52.24890961 108.75210602 -53.05729675 108.688797 C-55.66529594 108.47931143 -58.26962893 108.23981716 -60.875 108 C-62.68922649 107.8481085 -64.50360222 107.69799006 -66.31811523 107.54956055 C-71.18699008 107.14537635 -76.05309125 106.71405155 -80.91900635 106.27581787 C-85.12674788 105.89913085 -89.33556172 105.53519682 -93.54437256 105.17068481 C-105.36588928 104.14605976 -117.18388693 103.08504328 -129 102 C-127.17204011 95.1648637 -124.82753098 88.99165931 -121.5 82.75 C-121.0656665 81.93152588 -120.63133301 81.11305176 -120.18383789 80.26977539 C-115.92339913 72.47988906 -110.80718972 65.68865769 -105 59 C-104.23816406 58.11054687 -103.47632813 57.22109375 -102.69140625 56.3046875 C-100.5075668 53.82110538 -98.27378454 51.4013949 -96 49 C-95.15953125 48.10667969 -94.3190625 47.21335937 -93.453125 46.29296875 C-71.04783109 23.14299022 -33.32513657 -0.19873102 0 0 Z " fill="#FB8D46" transform="translate(296,562)"/>
<path d="M0 0 C9.32456191 7.60188861 15.64671667 18.1936972 18 30 C19.60924624 45.96610131 16.89693907 60.43742749 7.1484375 73.4765625 C-1.19419445 83.41459817 -13.31007043 91.01652217 -26.42016602 92.22265625 C-44.85753639 93.04722877 -58.77808137 89.65643777 -72.75 76.9375 C-84.40710566 64.71532818 -86.7049699 49.59683651 -86.37109375 33.4375 C-85.81850395 22.00026768 -80.69437371 12.40220366 -73 4 C-52.25655182 -14.41413837 -22.54868123 -16.45717183 0 0 Z " fill="#FDA766" transform="translate(358,672)"/>
<path d="M0 0 C100.98 0 201.96 0 306 0 C306 8.25 306 16.5 306 25 C205.02 25 104.04 25 0 25 C0 16.75 0 8.5 0 0 Z " fill="#FEC667" transform="translate(171,191)"/>
<path d="M0 0 C0.78281845 0.32947632 1.5656369 0.65895264 2.37217712 0.99841309 C4.89272956 2.06273408 7.40757407 3.13975207 9.921875 4.21875 C11.65141132 4.95581657 13.38098497 5.69279556 15.1105957 6.4296875 C48.79708181 20.82479345 48.79708181 20.82479345 59.671875 29.71875 C60.703125 30.481875 61.734375 31.245 62.796875 32.03125 C77.82943757 46.08342805 85.8198867 63.79337962 89.72265625 83.6796875 C89.98778941 85.00114563 90.25352238 86.32248355 90.51982117 87.64370728 C91.07124465 90.39067612 91.61589329 93.13887328 92.15551758 95.88818359 C92.84684963 99.40782256 93.55468245 102.92390525 94.26743793 106.43926048 C94.816808 109.15748123 95.35783996 111.87730927 95.89632225 114.59770584 C96.2790752 116.52408188 96.66857486 118.44911345 97.05818176 120.37411499 C97.28559555 121.54278107 97.51300934 122.71144714 97.74731445 123.91552734 C97.95064896 124.9423764 98.15398346 125.96922546 98.36347961 127.02719116 C98.66116748 129.62529882 98.50718337 131.26682117 97.671875 133.71875 C97.39625732 133.17162354 97.12063965 132.62449707 96.83666992 132.06079102 C77.46908314 93.82467917 52.85260545 60.10662857 11.00390625 45.41015625 C2.40408185 42.86045957 -7.49690717 41.95137077 -15.828125 45.71875 C-22.5850072 49.63530077 -26.18266667 55.7288426 -29.328125 62.71875 C-32.82858743 61.37564503 -36.13041918 59.84358737 -39.44921875 58.1015625 C-56.04246869 49.52274846 -72.89136737 42.38617338 -90.328125 35.71875 C-85.53557593 31.34201069 -79.87134397 28.81950327 -74.09765625 25.9921875 C-72.44101204 25.17060654 -72.44101204 25.17060654 -70.75090027 24.33242798 C-67.21695841 22.58043975 -63.67918819 20.83638325 -60.140625 19.09375 C-55.5195147 16.81515429 -50.90120913 14.53101047 -46.28515625 12.2421875 C-45.16626007 11.69004578 -44.04736389 11.13790405 -42.89456177 10.56903076 C-37.81279662 8.04174255 -32.79529171 5.46498691 -27.88427734 2.61816406 C-26.6555616 1.90655624 -26.6555616 1.90655624 -25.40202332 1.18057251 C-23.91683809 0.30683498 -22.44124063 -0.58352756 -20.97846985 -1.49429321 C-13.48219836 -5.93199498 -7.48186258 -3.22006938 0 0 Z " fill="#F47231" transform="translate(478.328125,476.28125)"/>
<path d="M0 0 C0.60580399 0.30294983 1.21160797 0.60589966 1.83576965 0.91802979 C3.79499396 1.8994945 5.75109238 2.88700623 7.70703125 3.875 C9.06959107 4.5597104 10.4322218 5.2442797 11.79492188 5.92871094 C19.8095183 9.96201077 27.78467591 14.06264249 35.69946289 18.2890625 C39.94337524 20.54768222 44.21664936 22.73053633 48.52734375 24.859375 C49.54441406 25.36178711 50.56148437 25.86419922 51.609375 26.38183594 C53.59627924 27.35930588 55.58577812 28.33152353 57.578125 29.29785156 C58.91423828 29.95479004 58.91423828 29.95479004 60.27734375 30.625 C61.07285645 31.01171875 61.86836914 31.3984375 62.68798828 31.796875 C64.51953125 32.875 64.51953125 32.875 65.51953125 34.875 C64.88789063 35.12032471 64.25625 35.36564941 63.60546875 35.6184082 C43.50220429 43.45947794 23.67798291 51.91764683 4.51953125 61.875 C4.17921875 61.15054688 3.83890625 60.42609375 3.48828125 59.6796875 C-0.32311197 52.07717443 -4.1193657 47.49172887 -11.77734375 43.75390625 C-26.13054504 39.08704167 -41.68012936 45.34280974 -54.46826172 51.70141602 C-64.26086329 56.81814535 -79.46899765 64.8520578 -84.48046875 74.875 C-85.14046875 74.875 -85.80046875 74.875 -86.48046875 74.875 C-87.1533586 76.20520355 -87.81828008 77.53943705 -88.48046875 78.875 C-89.94805242 80.67279 -91.45310408 82.44021415 -92.98046875 84.1875 C-104.50178726 97.76784092 -115.094033 114.06924719 -121.57226562 130.67333984 C-121.87197266 131.3998877 -122.17167969 132.12643555 -122.48046875 132.875 C-122.81046875 132.875 -123.14046875 132.875 -123.48046875 132.875 C-122.96530292 124.94576286 -121.97022022 117.29214043 -120.37109375 109.51171875 C-120.16240662 108.47666702 -119.95371948 107.4416153 -119.7387085 106.37519836 C-119.29836895 104.20230339 -118.85450027 102.03012081 -118.40722656 99.85864258 C-117.7347191 96.58320131 -117.0796086 93.30460515 -116.42578125 90.02539062 C-110.66918789 61.57943657 -101.11891506 38.91112273 -76.11914062 22.30664062 C-67.11296511 16.82198093 -57.54008536 12.87922395 -47.80786133 8.8762207 C-44.91709397 7.68714017 -42.03143932 6.48630844 -39.14648438 5.28320312 C-34.68486531 3.42699683 -30.21262469 1.59899036 -25.73162842 -0.2098999 C-23.78212577 -1.00237593 -21.84158599 -1.81683354 -19.90283203 -2.63525391 C-18.95005371 -3.01987793 -17.99727539 -3.40450195 -17.015625 -3.80078125 C-16.25773682 -4.11571533 -15.49984863 -4.43064941 -14.71899414 -4.75512695 C-9.52854821 -5.6127478 -4.51107219 -2.2639271 0 0 Z " fill="#EF672C" transform="translate(194.48046875,477.125)"/>
<path d="M0 0 C3 2 3 2 5 4 C6.68257518 4.48635664 8.36866366 4.96062065 10.05688477 5.42700195 C12.77078247 6.49282837 12.77078247 6.49282837 15 8 C16.47912886 11.68292155 16.23424514 15.24550691 16.08984375 19.16796875 C16.0907753 20.27618484 16.09170685 21.38440094 16.09266663 22.52619934 C16.08778603 26.08206792 16.01579214 29.63255511 15.9375 33.1875 C15.88267849 37.82681052 15.85485335 42.465869 15.83984375 47.10546875 C15.83385162 48.22681717 15.8278595 49.34816559 15.82168579 50.50349426 C15.87177449 74.43783933 23.27818996 92.87100303 40 110 C46.38060667 116.36205485 46.38060667 116.36205485 54 121 C54 120.34 54 119.68 54 119 C57.27037599 115.72962401 60.5130254 115.43143987 65 115 C65 116.65 65 118.3 65 120 C66.65 120 68.3 120 70 120 C70 120.66 70 121.32 70 122 C70.2475 121.319375 70.495 120.63875 70.75 119.9375 C71.1625 119.298125 71.575 118.65875 72 118 C74.0625 118.0625 74.0625 118.0625 76 119 C76.33 119.99 76.66 120.98 77 122 C77.33 122 77.66 122 78 122 C78.70491267 119.67793475 79.37212429 117.34406932 80 115 C82.4375 115.5625 82.4375 115.5625 85 117 C85.8125 120.625 85.8125 120.625 86 124 C86.99 123.34 87.98 122.68 89 122 C88.34 121.67 87.68 121.34 87 121 C87 120.34 87 119.68 87 119 C87.99 118.67 88.98 118.34 90 118 C90 118.66 90 119.32 90 120 C91.32 119.67 92.64 119.34 94 119 C93.505 120.485 93.505 120.485 93 122 C93.95093297 123.69514137 94.95107762 125.36368108 96 127 C96 127.66 96 128.32 96 129 C96.66 129 97.32 129 98 129 C98 130.65 98 132.3 98 134 C99.47734876 134.22085618 100.95699935 134.42636809 102.4375 134.625 C103.26121094 134.74101562 104.08492188 134.85703125 104.93359375 134.9765625 C105.61550781 134.98429688 106.29742187 134.99203125 107 135 C107.33 134.34 107.66 133.68 108 133 C108.66 133 109.32 133 110 133 C110 133.66 110 134.32 110 135 C111.32 134.34 112.64 133.68 114 133 C114.33 133.99 114.66 134.98 115 136 C118.2985139 135.27731765 118.2985139 135.27731765 119.6875 131.9375 C120.3371875 130.4834375 120.3371875 130.4834375 121 129 C119.02 128.34 117.04 127.68 115 127 C114.67 128.32 114.34 129.64 114 131 C113.01 130.67 112.02 130.34 111 130 C111.66 130 112.32 130 113 130 C113 129.34 113 128.68 113 128 C112.34 127.67 111.68 127.34 111 127 C110.3671875 124.71484375 110.3671875 124.71484375 109.875 121.9375 C109.70742188 121.01839844 109.53984375 120.09929687 109.3671875 119.15234375 C109.18542969 118.08693359 109.18542969 118.08693359 109 117 C109.825 116.87625 110.65 116.7525 111.5 116.625 C112.7375 116.315625 112.7375 116.315625 114 116 C114 115.34 114 114.68 114 114 C115.875 112.9375 115.875 112.9375 118 112 C118.66 111.67 119.32 111.34 120 111 C120 111.66 120 112.32 120 113 C120.66 113 121.32 113 122 113 C122 112.34 122 111.68 122 111 C122.66 111 123.32 111 124 111 C124 111.66 124 112.32 124 113 C124.66 113 125.32 113 126 113 C126 113.99 126 114.98 126 116 C132.05266078 116.9840699 132.05266078 116.9840699 138 116 C138.66 116.33 139.32 116.66 140 117 C140 116.01 140 115.02 140 114 C140.66 114 141.32 114 142 114 C142 114.66 142 115.32 142 116 C144.64 115.67 147.28 115.34 150 115 C149.67 115.66 149.34 116.32 149 117 C149.99 117.33 150.98 117.66 152 118 C151.67 117.01 151.34 116.02 151 115 C150.34 114.67 149.68 114.34 149 114 C149 113.34 149 112.68 149 112 C149.99 111.67 150.98 111.34 152 111 C152.67156616 109.06381575 152.67156616 109.06381575 153 107 C153.33 106.34 153.66 105.68 154 105 C152.35 105 150.7 105 149 105 C149 104.67 149 104.34 149 104 C147.71867188 104.03480469 146.43734375 104.06960938 145.1171875 104.10546875 C125.4075516 104.48788311 107.50314821 101.35958684 92.5625 87.625 C87.13550337 82.40020145 87.13550337 82.40020145 86.625 77.125 C86.67929152 73.80718477 86.84323879 73.19001359 89.0625 70.5 C92.73240484 68.62600604 94.91089935 68.60117025 99 69 C101.703125 70.79296875 101.703125 70.79296875 104.25 73.1875 C109.48688607 77.75630595 114.49307926 80.61746594 121 83 C121.97839844 83.36738281 121.97839844 83.36738281 122.9765625 83.7421875 C134.85095414 87.43082831 148.89881554 85.33588917 159.8125 79.75 C163.62154466 77.47842428 166.59648588 74.70831322 169.58984375 71.453125 C171.81908467 69.15595707 173.06295654 68.99287284 176.3125 68.625 C180 69 180 69 182.9375 71.0625 C185 74 185 74 185.8125 77.25 C184.00205116 85.6059177 176.89279961 90.41699346 170.0625 94.875 C164.90261191 98.13064367 159.91352016 100.47064134 154 102 C155.58298026 101.5196682 157.16639978 101.04078388 158.75 100.5625 C159.63171875 100.29566406 160.5134375 100.02882813 161.421875 99.75390625 C163.60565835 99.11531506 165.78835498 98.53224167 168 98 C167.67 98.99 167.34 99.98 167 101 C167.66 101 168.32 101 169 101 C169.6328125 102.96875 169.6328125 102.96875 170.125 105.5 C170.29257812 106.3353125 170.46015625 107.170625 170.6328125 108.03125 C170.75398437 108.6809375 170.87515625 109.330625 171 110 C171.60328125 109.79761719 172.2065625 109.59523438 172.828125 109.38671875 C175 109 175 109 177.75 110.8125 C178.4925 111.534375 179.235 112.25625 180 113 C180 113.66 180 114.32 180 115 C177.69 114.67 175.38 114.34 173 114 C173 113.34 173 112.68 173 112 C172.67 112.33 172.34 112.66 172 113 C173.07811183 116.4140208 174.28613579 118.65620818 177 121 C176.01 121.33 175.02 121.66 174 122 C172.89283106 126.05961945 173.1702095 128.9547713 174 133 C173.5625 135.6875 173.5625 135.6875 173 138 C173 138.66 173 139.32 173 140 C172.195625 140.12375 171.39125 140.2475 170.5625 140.375 C169.716875 140.58125 168.87125 140.7875 168 141 C167.10417827 142.99660454 167.10417827 142.99660454 167 145 C165.64519246 143.64519246 164.33286704 142.24678537 163.0625 140.8125 C162.381875 140.214375 161.70125 139.61625 161 139 C160.01 139.33 159.02 139.66 158 140 C158 140.66 158 141.32 158 142 C156.02 142.33 154.04 142.66 152 143 C152.33 144.32 152.66 145.64 153 147 C152.01 146.67 151.02 146.34 150 146 C150.103125 147.27875 150.20625 148.5575 150.3125 149.875 C150.3046875 152.08203125 150.3046875 152.08203125 150 154 C147.11159726 156.18818389 145.34216762 156.03418051 141.77392578 155.67773438 C137.91738533 154.98516378 134.35380186 153.91236291 130.6796875 152.59375 C129.99134323 152.35319382 129.30299896 152.11263763 128.59379578 151.86479187 C127.11862865 151.34916492 125.64436014 150.83096103 124.17092896 150.31039429 C120.2509552 148.92676074 116.32341984 147.56511332 112.39453125 146.20703125 C111.60124924 145.93280838 110.80796722 145.65858551 109.99064636 145.37605286 C102.56069719 142.82244944 95.07732534 140.4786176 87.5625 138.1875 C65.45452269 131.39798665 44.23120683 124.8200219 26 110 C25.13890625 109.30261719 24.2778125 108.60523438 23.390625 107.88671875 C8.19838472 94.92727742 0.72623667 77.73397839 -1 58 C-1.1396251 54.01778348 -1.14029889 50.03904704 -1.1328125 46.0546875 C-1.13376923 44.92604279 -1.13472595 43.79739807 -1.13571167 42.634552 C-1.13638944 40.25945988 -1.13456337 37.88436586 -1.13037109 35.50927734 C-1.12500715 31.8798405 -1.13033495 28.25052683 -1.13671875 24.62109375 C-1.13605809 22.30729139 -1.13477719 19.99348912 -1.1328125 17.6796875 C-1.13483673 16.59831512 -1.13686096 15.51694275 -1.13894653 14.40280151 C-1.12369373 9.49232453 -1.04504982 4.82466398 0 0 Z " fill="#FAC78B" transform="translate(188,281)"/>
<path d="M0 0 C1.51464844 1.97436523 1.51464844 1.97436523 3.109375 4.55859375 C3.99496094 5.97495117 3.99496094 5.97495117 4.8984375 7.41992188 C5.50945312 8.41572266 6.12046875 9.41152344 6.75 10.4375 C7.9507938 12.37514454 9.15391149 14.31135091 10.359375 16.24609375 C10.95298828 17.20112793 11.54660156 18.15616211 12.15820312 19.14013672 C14.54071306 22.83959607 17.10544337 26.39045876 19.72363281 29.92602539 C21 32 21 32 21 35 C19.28198242 36.19165039 19.28198242 36.19165039 16.85546875 37.34765625 C15.51331299 38.00036499 15.51331299 38.00036499 14.14404297 38.66625977 C13.16838379 39.12701904 12.19272461 39.58777832 11.1875 40.0625 C9.15147538 41.05029546 7.11633292 42.03991108 5.08203125 43.03125 C4.0554541 43.52882813 3.02887695 44.02640625 1.97119141 44.5390625 C-2.27463479 46.62673908 -6.45154474 48.83455857 -10.625 51.0625 C-17.85521544 54.90400227 -25.15059325 58.59435501 -32.48486328 62.23266602 C-40.76920922 66.35529659 -48.95131524 70.66562552 -57.11914062 75.01367188 C-57.73982422 75.33916016 -58.36050781 75.66464844 -59 76 C-59.65677734 76.39251953 -60.31355469 76.78503906 -60.99023438 77.18945312 C-63 78 -63 78 -65.0402832 77.97875977 C-68.04543247 76.47786984 -68.83091745 74.29362004 -70.35546875 71.33984375 C-70.65877609 70.76242935 -70.96208344 70.18501495 -71.27458191 69.59010315 C-72.25800917 67.71209994 -73.222645 65.82510159 -74.1875 63.9375 C-75.19076856 62.00972003 -76.19850828 60.08432115 -77.2064209 58.15896606 C-77.87250101 56.88561705 -78.53697629 55.61142725 -79.1998291 54.33639526 C-82.14538916 48.67876015 -85.25499868 43.12695048 -88.47338867 37.62084961 C-90.1239026 34.75519835 -91.28492368 32.22000508 -92 29 C-91.15606689 28.74202637 -90.31213379 28.48405273 -89.44262695 28.21826172 C-77.15950341 24.42401927 -64.961033 20.38239064 -52.76538086 16.31689453 C-49.20599603 15.13116156 -45.64503584 13.95024798 -42.08398438 12.76953125 C-39.75755325 11.99557051 -37.43137781 11.22084074 -35.10546875 10.4453125 C-33.97986542 10.07013489 -32.85426208 9.69495728 -31.69454956 9.30841064 C-23.93671163 6.70222479 -16.24614364 3.94652188 -8.63505554 0.93655396 C-3.32161116 -1.10720372 -3.32161116 -1.10720372 0 0 Z " fill="#BDE3F0" transform="translate(429,425)"/>
<path d="M0 0 C2.0149231 0.36849976 2.0149231 0.36849976 4.46533203 1.16943359 C5.36460922 1.45965897 6.26388641 1.74988434 7.19041443 2.04890442 C8.11757767 2.36276596 9.04474091 2.6766275 10 3 C11.27466881 3.42855537 11.27466881 3.42855537 12.5750885 3.86576843 C15.25739526 4.78207133 17.93192068 5.71861595 20.60546875 6.66015625 C22.64846736 7.37457768 24.69151954 8.08884595 26.73461914 8.80297852 C28.31728073 9.35733078 28.31728073 9.35733078 29.93191528 9.92288208 C49.86728195 16.90126018 69.84497871 23.68296759 90 30 C89.4062964 33.96561837 88.17453407 36.85088998 86.19140625 40.32421875 C85.61366455 41.34515625 85.03592285 42.36609375 84.44067383 43.41796875 C83.82087646 44.49691406 83.2010791 45.57585937 82.5625 46.6875 C81.28585942 48.93064883 80.00982233 51.17414123 78.734375 53.41796875 C78.10208984 54.5270459 77.46980469 55.63612305 76.81835938 56.77880859 C75.16493459 59.7078213 73.54843591 62.65231996 71.953125 65.61328125 C71.50251709 66.44577393 71.05190918 67.2782666 70.58764648 68.13598633 C69.75466646 69.68026081 68.92834712 71.22815176 68.10961914 72.7800293 C65.33375977 77.88874674 65.33375977 77.88874674 62 79 C60.08563232 78.32783508 60.08563232 78.32783508 57.89355469 77.19262695 C56.65267845 76.55928436 56.65267845 76.55928436 55.38673401 75.91314697 C54.49083054 75.44294128 53.59492706 74.9727356 52.671875 74.48828125 C51.7388707 74.00848816 50.80586639 73.52869507 49.84458923 73.03436279 C46.80806314 71.46987569 43.77907513 69.89135764 40.75 68.3125 C38.67728312 67.24124675 36.60412214 66.17085234 34.53051758 65.10131836 C28.68036578 62.0802609 22.83900199 59.04253874 17 56 C15.62748041 55.28573234 14.25492677 54.57153009 12.88232422 53.85742188 C8.94271952 51.80628321 5.0041313 49.75331066 1.07104492 47.68969727 C-6.56558731 43.68452337 -14.26727674 39.81585763 -22 36 C-20.59715019 33.06235533 -19.00174817 30.37091808 -17.20703125 27.65625 C-16.66280518 26.82681885 -16.1185791 25.9973877 -15.55786133 25.14282227 C-14.38225344 23.36271941 -13.20364255 21.58459657 -12.0222168 19.80834961 C-9.46022819 15.92354335 -6.95588413 12.1091161 -4.9375 7.91015625 C-4.40125 6.80542969 -3.865 5.70070313 -3.3125 4.5625 C-2.89613281 3.59441406 -2.47976562 2.62632812 -2.05078125 1.62890625 C-1.37402344 1.09136719 -0.69726562 0.55382812 0 0 Z " fill="#BAE1EE" transform="translate(220,424)"/>
<path d="M0 0 C-0.63180657 16.18732004 -3.17492764 31.21586168 -8.01171875 46.68359375 C-9.09519563 49.74269637 -9.09519563 49.74269637 -9 52 C-2.4 52 4.2 52 11 52 C11 52.33 11 52.66 11 53 C5.72 53 0.44 53 -5 53 C-5 53.66 -5 54.32 -5 55 C-7.5 55.625 -7.5 55.625 -10 56 C-10 55.34 -10 54.68 -10 54 C-39.04 53.67 -68.08 53.34 -98 53 C-95.69 49.04 -93.38 45.08 -91 41 C-85.76538482 31.44375207 -85.76538482 31.44375207 -84.1484375 20.8984375 C-83.57996094 19.46371094 -83.57996094 19.46371094 -83 18 C-79.26687474 16.4024335 -75.30082471 15.90710298 -71.3125 15.25 C-69.38783865 14.89353507 -67.46321701 14.53682254 -65.53967285 14.17437744 C-64.11666505 13.90676888 -62.69305148 13.64236602 -61.2689209 13.38079834 C-51.71157909 11.61289126 -42.22539747 9.50767714 -32.73178101 7.42907715 C-29.65720818 6.75704003 -26.58134064 6.09123904 -23.50512695 5.42675781 C-21.57889455 5.00866735 -19.65270452 4.59038162 -17.7265625 4.171875 C-16.84841385 3.98250366 -15.9702652 3.79313232 -15.06550598 3.59802246 C-10.4302264 2.58496 -4.67523523 0 0 0 Z " fill="#FCCF97" transform="translate(489,710)"/>
<path d="M0 0 C0.99265869 0.22349121 1.98531738 0.44698242 3.00805664 0.67724609 C15.64230374 3.50943862 28.30278053 6.21336944 40.97045898 8.89160156 C44.45660532 9.62904143 47.94217867 10.36914912 51.42773438 11.109375 C53.67965333 11.58609895 55.93160529 12.06266699 58.18359375 12.5390625 C59.20778915 12.75680328 60.23198456 12.97454407 61.28721619 13.19888306 C62.269366 13.4060495 63.25151581 13.61321594 64.26342773 13.82666016 C65.20910614 14.02793518 66.15478455 14.22921021 67.12911987 14.43658447 C69.11542881 14.82640127 71.11212533 15.16545274 73.11428833 15.46331787 C74.10661469 15.612547 75.09894104 15.76177612 76.12133789 15.91552734 C77.01389786 16.03471527 77.90645782 16.1539032 78.82606506 16.27670288 C81 17 81 17 82.20872498 18.82192993 C83.0002161 21.18659689 83.48106329 23.56099744 84 26 C86.63021653 33.96092255 89.85080106 40.86874182 94.64453125 47.7578125 C96 50 96 50 96 53 C60.69 52.67 25.38 52.34 -11 52 C-11 51.67 -11 51.34 -11 51 C-4.73 50.67 1.54 50.34 8 50 C6.8553125 46.0709375 6.8553125 46.0709375 5.6875 42.0625 C1.71762881 27.92500299 -0.46809864 14.69538669 0 0 Z " fill="#FDCE95" transform="translate(160,711)"/>
<path d="M0 0 C0.66 0 1.32 0 2 0 C3.19140625 1.5390625 3.19140625 1.5390625 4.5625 3.625 C10.49086535 11.72996325 18.65844759 15.03165624 28 18 C27.03472866 22.91410866 25.83175829 27.62782419 24.2734375 32.39038086 C17.37078689 53.51675391 14.98244605 74.89496385 14 97 C0.10817175 96.46259852 -10.27903523 92.2754531 -19.8125 82.125 C-23.04056698 78.28661512 -24.56284437 74.79051875 -26 70 C-26.18046875 69.40703125 -26.3609375 68.8140625 -26.546875 68.203125 C-28.7152997 57.66009459 -26.98188663 48.38030905 -22 39 C-21.65646484 38.35224609 -21.31292969 37.70449219 -20.95898438 37.03710938 C-14.92768761 25.7557719 -8.41635624 14.72978721 -1.96459961 3.68554688 C-1.27312376 2.47725802 -0.62259149 1.24518298 0 0 Z " fill="#FB964E" transform="translate(86,619)"/>
<path d="M0 0 C0.66 0 1.32 0 2 0 C3.52451947 2.11353836 4.89697252 4.21551388 6.25 6.4375 C6.67748535 7.13254639 7.1049707 7.82759277 7.54541016 8.54370117 C11.61030418 15.22891047 15.51172891 22.00927759 19.375 28.8125 C20.26687012 30.36698853 20.26687012 30.36698853 21.17675781 31.95288086 C27.73301685 43.63086863 32.4576986 54.43741894 29.3046875 67.98828125 C25.72290684 78.86906873 19.26283445 86.19804661 9.171875 91.48046875 C2.46904821 94.54830101 -2.69330072 95.27678262 -10 95 C-10.12677124 93.62956543 -10.12677124 93.62956543 -10.25610352 92.23144531 C-11.79050414 76.16595931 -13.46016125 60.30045761 -17.4375 44.625 C-17.71343994 43.53606445 -17.98937988 42.44712891 -18.27368164 41.32519531 C-20.08811733 34.5567386 -22.40776546 28.09164733 -25.03149414 21.59521484 C-26 19 -26 19 -26 17 C-23.69140625 16.140625 -23.69140625 16.140625 -20.5625 15.25 C-11.13034097 12.23571333 -5.42090519 8.21349271 0 0 Z " fill="#FDAC66" transform="translate(559,620)"/>
<path d="M0 0 C4.17989224 3.54520144 6.75675924 7.19276233 7.23828125 12.75 C7.5016324 24.28200831 4.86092708 33.40211101 -3 42 C-9.98196719 49.23372082 -17.08634619 52.40264455 -27.1875 52.6875 C-40.14884375 52.63913147 -50.76812142 45.77409948 -60 37 C-60.66 36.01 -61.32 35.02 -62 34 C-50.95301494 17.32586437 -30.47943683 5.15991093 -11.625 -0.4375 C-7.48410292 -1.080053 -3.96245892 -1.56047351 0 0 Z " fill="#FDCF94" transform="translate(177,535)"/>
<path d="M0 0 C13.93670254 4.13102681 25.9336791 11.69815314 37 21 C37.83789062 21.65613281 38.67578125 22.31226563 39.5390625 22.98828125 C41.85355878 24.88029012 43.91040139 26.80576218 45.9375 29 C46.87916016 29.99 46.87916016 29.99 47.83984375 31 C49 33 49 33 48.53125 34.97265625 C42.07315323 43.52304458 30.90382122 48.69872626 21 52 C10.88225732 52.97953636 3.38838477 52.15539968 -5 46 C-7.8125 43.625 -7.8125 43.625 -10 41 C-10.48984375 40.43796875 -10.9796875 39.8759375 -11.484375 39.296875 C-17.87910858 31.50922916 -20.80185708 22.89194589 -20.4609375 12.80859375 C-19.74984535 8.47575258 -17.94154217 5.23155337 -15 2 C-10.21223763 -1.19184158 -5.59804372 -0.70286549 0 0 Z " fill="#FDD197" transform="translate(483,535)"/>
<path d="M0 0 C2.703125 1.79296875 2.703125 1.79296875 5.25 4.1875 C10.48688607 8.75630595 15.49307926 11.61746594 22 14 C22.65226562 14.24492187 23.30453125 14.48984375 23.9765625 14.7421875 C35.85095414 18.43082831 49.89881554 16.33588917 60.8125 10.75 C64.62154466 8.47842428 67.59648588 5.70831322 70.58984375 2.453125 C72.81908467 0.15595707 74.06295654 -0.00712716 77.3125 -0.375 C81 0 81 0 83.9375 2.0625 C86 5 86 5 86.8125 8.25 C85.002657 16.60312155 77.89379857 21.42107745 71.0625 25.875 C65.90950964 29.09604414 60.95213993 31.68202616 55 33 C53.7625 33.30164063 53.7625 33.30164063 52.5 33.609375 C34.02862438 37.58286859 15.81437187 34.20964564 0 24 C-9.57873754 16.84252492 -9.57873754 16.84252492 -12 12 C-12.28394278 9.06592458 -12.48994001 6.84953616 -12 4 C-8.44647385 -0.30730443 -5.38248999 -0.52498027 0 0 Z " fill="#030101" transform="translate(287,350)"/>
<path d="M0 0 C1.3125 2.1875 1.3125 2.1875 2 5 C2.309375 6.1446875 2.309375 6.1446875 2.625 7.3125 C2.74875 8.199375 2.8725 9.08625 3 10 C3.17740723 10.627854 3.35481445 11.25570801 3.53759766 11.90258789 C3.99140322 14.39792992 4.09326423 15.6872334 3 18 C-1.53016553 19.98145954 -6.38611743 20.45378762 -11.25 21.125 C-12.70847727 21.35530741 -14.16624704 21.59013799 -15.62329102 21.8293457 C-17.86435809 22.1970724 -20.10545275 22.56226248 -22.34913635 22.91371155 C-29.61228496 24.0562894 -36.76127852 25.58550533 -43.9375 27.1875 C-70.52278562 33 -70.52278562 33 -78 33 C-78.12117188 32.01 -78.24234375 31.02 -78.3671875 30 C-78.53620565 28.66663461 -78.70549088 27.33330306 -78.875 26 C-79.03742188 24.700625 -79.19984375 23.40125 -79.3671875 22.0625 C-79.76384118 19.23517899 -80.33054102 16.51148412 -81.03955078 13.74609375 C-81.35649902 12.50988281 -81.67344727 11.27367187 -82 10 C-67.337712 7.34448486 -52.61360434 5.5611884 -37.8125 3.875 C-34.36752198 3.4785704 -30.92269458 3.08086531 -27.47795105 2.68240356 C-25.35451212 2.43719517 -23.23091394 2.19336049 -21.10713196 1.95114136 C-1.84611699 -0.25759772 -1.84611699 -0.25759772 0 0 Z " fill="#FBFBFB" transform="translate(485,678)"/>
<path d="M0 0 C3.25126772 -0.12933934 5.90435671 0.04946447 9.09375 0.5 C10.02497681 0.61093994 10.95620361 0.72187988 11.91564941 0.83618164 C13.91650863 1.07762889 15.91598697 1.33074527 17.9140625 1.59423828 C20.94544377 1.99282655 23.97896021 2.35895374 27.015625 2.71484375 C32.13966275 3.31993123 37.25926836 3.95560244 42.37792969 4.60449219 C45.52492422 5.00315743 48.67255821 5.39644567 51.8203125 5.7890625 C61.90373254 7.05364983 71.9711316 8.34955699 82 10 C81.79012451 10.72179443 81.58024902 11.44358887 81.36401367 12.18725586 C79.3810802 19.06365252 78.04954313 25.92484454 77 33 C68.60303289 32.40705155 60.4685365 30.82060793 52.234375 29.12890625 C50.82821118 28.84333916 49.42198021 28.55810255 48.01568604 28.2731781 C45.08695505 27.67866928 42.15894867 27.08074864 39.23144531 26.48022461 C35.49162162 25.71327496 31.75026469 24.95413246 28.008358 24.19741917 C25.11149868 23.6108509 22.21540154 23.02058963 19.31952667 22.42918205 C17.94032013 22.14788685 16.56090275 21.86762325 15.18126678 21.58844185 C13.25258154 21.19749 11.32499716 20.80111921 9.39746094 20.40454102 C8.30399353 20.18105484 7.21052612 19.95756866 6.08392334 19.72731018 C2.9497708 18.98815398 -0.01811105 18.22282799 -3 17 C-3.4375 14.35546875 -3.4375 14.35546875 -3 11.1875 C-2.87625 10.14980469 -2.7525 9.11210938 -2.625 8.04296875 C-2.41875 7.03878906 -2.2125 6.03460937 -2 5 C-1.84466797 4.10192627 -1.68933594 3.20385254 -1.52929688 2.27856445 C-1.02462891 1.52663818 -0.51996094 0.77471191 0 0 Z " fill="#FBFBFB" transform="translate(163,678)"/>
<path d="M0 0 C0.66 0 1.32 0 2 0 C2.99978638 1.49836731 2.99978638 1.49836731 4.06298828 3.62426758 C4.66338425 4.81098808 4.66338425 4.81098808 5.27590942 6.02168274 C5.70306244 6.88722275 6.13021545 7.75276276 6.5703125 8.64453125 C7.0114035 9.52525803 7.45249451 10.4059848 7.9069519 11.31340027 C8.84043208 13.18202455 9.76993252 15.05264131 10.69580078 16.92504883 C12.11613508 19.79458994 13.55116552 22.65641136 14.98828125 25.51757812 C15.89151545 27.33028575 16.79388793 29.14342306 17.6953125 30.95703125 C18.12651398 31.81649857 18.55771545 32.67596588 19.00198364 33.56147766 C19.3959433 34.36208115 19.78990295 35.16268463 20.19580078 35.98754883 C20.54506622 36.6914827 20.89433167 37.39541656 21.25418091 38.12068176 C22 40 22 40 22 43 C7.81 43 -6.38 43 -21 43 C-19.45735609 38.37206828 -17.7607267 34.2436907 -15.5625 29.9375 C-15.2226709 29.2671875 -14.8828418 28.596875 -14.53271484 27.90625 C-13.77935941 26.42564386 -13.0233647 24.94637852 -12.26513672 23.46826172 C-11.36727597 21.7165496 -10.47348487 19.96274887 -9.58251953 18.20751953 C-8.10542493 15.30044581 -6.61674058 12.39958153 -5.125 9.5 C-4.64877197 8.56148193 -4.17254395 7.62296387 -3.68188477 6.65600586 C-3.00790649 5.35675171 -3.00790649 5.35675171 -2.3203125 4.03125 C-1.92086426 3.25330078 -1.52141602 2.47535156 -1.10986328 1.67382812 C-0.7436084 1.12146484 -0.37735352 0.56910156 0 0 Z " fill="#FBB753" transform="translate(323,467)"/>
<path d="M0 0 C3 1 3 1 4.1328125 2.92578125 C4.62394531 4.10720703 4.62394531 4.10720703 5.125 5.3125 C5.45757813 6.09238281 5.79015625 6.87226562 6.1328125 7.67578125 C8.54111258 14.13045939 9.82147095 21.96674291 6.90625 28.421875 C2.68023849 34.4012317 -2.44321255 37.63776031 -9.5 39.375 C-11.8046875 39.54296875 -11.8046875 39.54296875 -14 39 C-17.01027604 36.08340475 -18.89537189 32.59761372 -21 29 C-22.29795611 27.15634133 -23.60991353 25.32243834 -24.9375 23.5 C-28 19.24615385 -28 19.24615385 -28 17 C-25.79102451 15.7259436 -23.59385354 14.56849125 -21.3125 13.4375 C-14.60891852 10.02393619 -8.62932728 6.08983295 -2.609375 1.58984375 C-1.74828125 1.06519531 -0.8871875 0.54054688 0 0 Z " fill="#FCD299" transform="translate(540,583)"/>
<path d="M0 0 C3.96683759 1.391247 6.91818311 3.26492656 10.25 5.8125 C16.41847196 10.39313079 22.72297821 14.41783098 30 17 C29.43539062 17.81597656 28.87078125 18.63195312 28.2890625 19.47265625 C26.62732168 21.9535959 25.173357 24.4841922 23.7734375 27.12109375 C17.66062998 38.3332127 17.66062998 38.3332127 13.44140625 40.02734375 C7.19546013 39.64732519 1.62431721 36.03800297 -3 32 C-6.28718974 28.09029395 -7.39771884 24.68068403 -7.359375 19.5234375 C-6.39141466 12.72667254 -3.14770373 6.06006512 0 0 Z " fill="#FCD096" transform="translate(106,583)"/>
<path d="M0 0 C0.33 0 0.66 0 1 0 C1.33 21.45 1.66 42.9 2 65 C2.33 65 2.66 65 3 65 C3 67.64 3 70.28 3 73 C3.66 73 4.32 73 5 73 C4.34 75.64 3.68 78.28 3 81 C8.94 81.33 14.88 81.66 21 82 C21 82.33 21 82.66 21 83 C10.605 83.495 10.605 83.495 0 84 C0 56.28 0 28.56 0 0 Z " fill="#CBCCCD" transform="translate(312,551)"/>
<path d="M0 0 C1 4 1 4 1 4 Z " fill="#FFFFFF" transform="translate(23,704)"/>
<path d="M0 0 C1 4 1 4 1 4 Z " fill="#FFFFFF" transform="translate(21,658)"/>
<path d="" fill="#FFFFFF" transform="translate(0,0)"/>
<path d="" fill="#FFFFFF" transform="translate(0,0)"/>
<path d="" fill="#FFFFFF" transform="translate(0,0)"/>
<path d="" fill="#FFFFFF" transform="translate(0,0)"/>
<path d="" fill="#FFFFFF" transform="translate(0,0)"/>
<path d="M0 0 C0.66 0.66 1.32 1.32 2 2 C1.34 2 0.68 2 0 2 C0 1.34 0 0.68 0 0 Z " fill="#FFFFFF" transform="translate(132,67)"/>
<path d="M0 0 C3 1 3 1 3 1 Z " fill="#FFFFFF" transform="translate(172,43)"/>
<path d="M0 0 C3 1 3 1 3 1 Z " fill="#FFFFFF" transform="translate(464,41)"/>
<path d="M0 0 C0.33 0.66 0.66 1.32 1 2 C0.34 1.67 -0.32 1.34 -1 1 C-0.67 0.67 -0.34 0.34 0 0 Z " fill="#FFFFFF" transform="translate(207,33)"/>
<path d="M0 0 C0.66 0.66 1.32 1.32 2 2 C1.34 2 0.68 2 0 2 C0 1.34 0 0.68 0 0 Z " fill="#FFFFFF" transform="translate(284,12)"/>
<path d="" fill="#FFFFFF" transform="translate(0,0)"/>
<path d="" fill="#FFFFFF" transform="translate(0,0)"/>
<path d="M0 0 C2 1 2 1 2 1 Z " fill="#FFFFFF" transform="translate(69,771)"/>
<path d="M0 0 C2 1 2 1 2 1 Z " fill="#FFFFFF" transform="translate(618,735)"/>
<path d="" fill="#FFFFFF" transform="translate(0,0)"/>
<path d="" fill="#FFFFFF" transform="translate(0,0)"/>
<path d="" fill="#FFFFFF" transform="translate(0,0)"/>
<path d="" fill="#FFFFFF" transform="translate(0,0)"/>
<path d="" fill="#FFFFFF" transform="translate(0,0)"/>
<path d="" fill="#FFFFFF" transform="translate(0,0)"/>
<path d="" fill="#FFFFFF" transform="translate(0,0)"/>
<path d="" fill="#FFFFFF" transform="translate(0,0)"/>
<path d="M0 0 C2 1 2 1 2 1 Z " fill="#FFFFFF" transform="translate(167,420)"/>
<path d="" fill="#FFFFFF" transform="translate(0,0)"/>
<path d="" fill="#FFFFFF" transform="translate(0,0)"/>
<path d="" fill="#FFFFFF" transform="translate(0,0)"/>
<path d="M0 0 C2 1 2 1 2 1 Z " fill="#FFFFFF" transform="translate(196,37)"/>
<path d="M0 0 C2 1 2 1 2 1 Z " fill="#FFFFFF" transform="translate(205,32)"/>
<path d="M0 0 C2 1 2 1 2 1 Z " fill="#FFFFFF" transform="translate(377,17)"/>
<path d="M0 0 C2 1 2 1 2 1 Z " fill="#FFFFFF" transform="translate(362,13)"/>
<path d="M0 0 C2 1 2 1 2 1 Z " fill="#FFFFFF" transform="translate(287,13)"/>
<path d="M0 0 C2 1 2 1 2 1 Z " fill="#FFFFFF" transform="translate(355,12)"/>
<path d="M0 0 C2 1 2 1 2 1 Z " fill="#FFFFFF" transform="translate(352,12)"/>
<path d="M0 0 C2 1 2 1 2 1 Z " fill="#FFFFFF" transform="translate(346,11)"/>
<path d="M0 0 C2 1 2 1 2 1 Z " fill="#FFFFFF" transform="translate(334,10)"/>
<path d="" fill="#FFFFFF" transform="translate(0,0)"/>
<path d="" fill="#FFFFFF" transform="translate(0,0)"/>
<path d="" fill="#FFFFFF" transform="translate(0,0)"/>
<path d="" fill="#FFFFFF" transform="translate(0,0)"/>
<path d="" fill="#FFFFFF" transform="translate(0,0)"/>
<path d="" fill="#FFFFFF" transform="translate(0,0)"/>
<path d="" fill="#FFFFFF" transform="translate(0,0)"/>
<path d="" fill="#FFFFFF" transform="translate(0,0)"/>
<path d="" fill="#FFFFFF" transform="translate(0,0)"/>
<path d="" fill="#FFFFFF" transform="translate(0,0)"/>
<path d="" fill="#FFFFFF" transform="translate(0,0)"/>
<path d="" fill="#FFFFFF" transform="translate(0,0)"/>
<path d="" fill="#FFFFFF" transform="translate(0,0)"/>
<path d="" fill="#FFFFFF" transform="translate(0,0)"/>
<path d="" fill="#FFFFFF" transform="translate(0,0)"/>
<path d="" fill="#FFFFFF" transform="translate(0,0)"/>
<path d="" fill="#FFFFFF" transform="translate(0,0)"/>
<path d="" fill="#FFFFFF" transform="translate(0,0)"/>
<path d="" fill="#FFFFFF" transform="translate(0,0)"/>
<path d="" fill="#FFFFFF" transform="translate(0,0)"/>
<path d="" fill="#FFFFFF" transform="translate(0,0)"/>
<path d="" fill="#FFFFFF" transform="translate(0,0)"/>
<path d="" fill="#FFFFFF" transform="translate(0,0)"/>
<path d="" fill="#FFFFFF" transform="translate(0,0)"/>
<path d="" fill="#FFFFFF" transform="translate(0,0)"/>
<path d="" fill="#FFFFFF" transform="translate(0,0)"/>
<path d="" fill="#FFFFFF" transform="translate(0,0)"/>
<path d="" fill="#FFFFFF" transform="translate(0,0)"/>
<path d="" fill="#FFFFFF" transform="translate(0,0)"/>
<path d="" fill="#FFFFFF" transform="translate(0,0)"/>
<path d="" fill="#FFFFFF" transform="translate(0,0)"/>
<path d="" fill="#FFFFFF" transform="translate(0,0)"/>
<path d="" fill="#FFFFFF" transform="translate(0,0)"/>
<path d="" fill="#FFFFFF" transform="translate(0,0)"/>
<path d="" fill="#FFFFFF" transform="translate(0,0)"/>
<path d="" fill="#FFFFFF" transform="translate(0,0)"/>
<path d="" fill="#FFFFFF" transform="translate(0,0)"/>
<path d="" fill="#FFFFFF" transform="translate(0,0)"/>
<path d="" fill="#FFFFFF" transform="translate(0,0)"/>
<path d="" fill="#FFFFFF" transform="translate(0,0)"/>
<path d="" fill="#FFFFFF" transform="translate(0,0)"/>
<path d="" fill="#FFFFFF" transform="translate(0,0)"/>
<path d="" fill="#FFFFFF" transform="translate(0,0)"/>
<path d="" fill="#FFFFFF" transform="translate(0,0)"/>
<path d="" fill="#FFFFFF" transform="translate(0,0)"/>
<path d="" fill="#FFFFFF" transform="translate(0,0)"/>
<path d="" fill="#FFFFFF" transform="translate(0,0)"/>
<path d="" fill="#FFFFFF" transform="translate(0,0)"/>
<path d="" fill="#FFFFFF" transform="translate(0,0)"/>
<path d="" fill="#FFFFFF" transform="translate(0,0)"/>
<path d="" fill="#FFFFFF" transform="translate(0,0)"/>
<path d="" fill="#FFFFFF" transform="translate(0,0)"/>
<path d="" fill="#FFFFFF" transform="translate(0,0)"/>
<path d="" fill="#FFFFFF" transform="translate(0,0)"/>
<path d="" fill="#FFFFFF" transform="translate(0,0)"/>
<path d="" fill="#FFFFFF" transform="translate(0,0)"/>
<path d="" fill="#FFFFFF" transform="translate(0,0)"/>
<path d="" fill="#FFFFFF" transform="translate(0,0)"/>
<path d="" fill="#FFFFFF" transform="translate(0,0)"/>
<path d="" fill="#FFFFFF" transform="translate(0,0)"/>
<path d="" fill="#FFFFFF" transform="translate(0,0)"/>
<path d="" fill="#FFFFFF" transform="translate(0,0)"/>
<path d="" fill="#FFFFFF" transform="translate(0,0)"/>
<path d="" fill="#FFFFFF" transform="translate(0,0)"/>
<path d="" fill="#FFFFFF" transform="translate(0,0)"/>
<path d="" fill="#FFFFFF" transform="translate(0,0)"/>
<path d="" fill="#FFFFFF" transform="translate(0,0)"/>
<path d="" fill="#FFFFFF" transform="translate(0,0)"/>
<path d="" fill="#FFFFFF" transform="translate(0,0)"/>
<path d="" fill="#FFFFFF" transform="translate(0,0)"/>
<path d="" fill="#FFFFFF" transform="translate(0,0)"/>
<path d="" fill="#FFFFFF" transform="translate(0,0)"/>
<path d="" fill="#FFFFFF" transform="translate(0,0)"/>
<path d="" fill="#FFFFFF" transform="translate(0,0)"/>
<path d="" fill="#FFFFFF" transform="translate(0,0)"/>
<path d="" fill="#FFFFFF" transform="translate(0,0)"/>
<path d="" fill="#FFFFFF" transform="translate(0,0)"/>
<path d="" fill="#FFFFFF" transform="translate(0,0)"/>
<path d="" fill="#FFFFFF" transform="translate(0,0)"/>
<path d="" fill="#000000" transform="translate(0,0)"/>
<path d="" fill="#FFFFFF" transform="translate(0,0)"/>
<path d="" fill="#FFFFFF" transform="translate(0,0)"/>
<path d="" fill="#FFFFFF" transform="translate(0,0)"/>
<path d="" fill="#FFFFFF" transform="translate(0,0)"/>
<path d="" fill="#FFFFFF" transform="translate(0,0)"/>
<path d="" fill="#000000" transform="translate(0,0)"/>
<path d="" fill="#000000" transform="translate(0,0)"/>
<path d="" fill="#000000" transform="translate(0,0)"/>
<path d="" fill="#FFFFFF" transform="translate(0,0)"/>
<path d="" fill="#FFFFFF" transform="translate(0,0)"/>
<path d="" fill="#FFFFFF" transform="translate(0,0)"/>
<path d="" fill="#000000" transform="translate(0,0)"/>
<path d="" fill="#000000" transform="translate(0,0)"/>
<path d="" fill="#808080" transform="translate(0,0)"/>
<path d="" fill="#808080" transform="translate(0,0)"/>
<path d="" fill="#FFFFFF" transform="translate(0,0)"/>
<path d="" fill="#FFFFFF" transform="translate(0,0)"/>
<path d="" fill="#FFFFFF" transform="translate(0,0)"/>
<path d="" fill="#FFFFFF" transform="translate(0,0)"/>
<path d="" fill="#FFFFFF" transform="translate(0,0)"/>
<path d="" fill="#FFFFFF" transform="translate(0,0)"/>
<path d="" fill="#FFFFFF" transform="translate(0,0)"/>
<path d="" fill="#FFFFFF" transform="translate(0,0)"/>
<path d="" fill="#FFFFFF" transform="translate(0,0)"/>
<path d="" fill="#FFFFFF" transform="translate(0,0)"/>
<path d="" fill="#000000" transform="translate(0,0)"/>
<path d="" fill="#000000" transform="translate(0,0)"/>
<path d="" fill="#000000" transform="translate(0,0)"/>
<path d="" fill="#000000" transform="translate(0,0)"/>
<path d="" fill="#000000" transform="translate(0,0)"/>
<path d="" fill="#000000" transform="translate(0,0)"/>
<path d="" fill="#FFFFFF" transform="translate(0,0)"/>
<path d="" fill="#FFFFFF" transform="translate(0,0)"/>
<path d="" fill="#FFFFFF" transform="translate(0,0)"/>
<path d="" fill="#FFFFFF" transform="translate(0,0)"/>
<path d="" fill="#FFFFFF" transform="translate(0,0)"/>
<path d="" fill="#FFFFFF" transform="translate(0,0)"/>
<path d="" fill="#000000" transform="translate(0,0)"/>
<path d="" fill="#FFFFFF" transform="translate(0,0)"/>
<path d="" fill="#FFFFFF" transform="translate(0,0)"/>
<path d="" fill="#000000" transform="translate(0,0)"/>
<path d="" fill="#000000" transform="translate(0,0)"/>
<path d="" fill="#FFFFFF" transform="translate(0,0)"/>
<path d="" fill="#FFFFFF" transform="translate(0,0)"/>
<path d="" fill="#FFFFFF" transform="translate(0,0)"/>
<path d="" fill="#FFFFFF" transform="translate(0,0)"/>
<path d="" fill="#FFFFFF" transform="translate(0,0)"/>
<path d="" fill="#FFFFFF" transform="translate(0,0)"/>
<path d="" fill="#FFFFFF" transform="translate(0,0)"/>
<path d="" fill="#000000" transform="translate(0,0)"/>
<path d="" fill="#FFFFFF" transform="translate(0,0)"/>
<path d="" fill="#FFFFFF" transform="translate(0,0)"/>
<path d="" fill="#FFFFFF" transform="translate(0,0)"/>
<path d="" fill="#FFFFFF" transform="translate(0,0)"/>
<path d="" fill="#FFFFFF" transform="translate(0,0)"/>
<path d="" fill="#FFFFFF" transform="translate(0,0)"/>
<path d="" fill="#FFFFFF" transform="translate(0,0)"/>
<path d="" fill="#FFFFFF" transform="translate(0,0)"/>
<path d="" fill="#FFFFFF" transform="translate(0,0)"/>
<path d="" fill="#FFFFFF" transform="translate(0,0)"/>
<path d="" fill="#FFFFFF" transform="translate(0,0)"/>
<path d="" fill="#FFFFFF" transform="translate(0,0)"/>
<path d="" fill="#FFFFFF" transform="translate(0,0)"/>
<path d="" fill="#FFFFFF" transform="translate(0,0)"/>
<path d="" fill="#FFFFFF" transform="translate(0,0)"/>
<path d="" fill="#FFFFFF" transform="translate(0,0)"/>
<path d="" fill="#FFFFFF" transform="translate(0,0)"/>
<path d="" fill="#FFFFFF" transform="translate(0,0)"/>
<path d="" fill="#FFFFFF" transform="translate(0,0)"/>
<path d="" fill="#FFFFFF" transform="translate(0,0)"/>
<path d="" fill="#FFFFFF" transform="translate(0,0)"/>
<path d="" fill="#FFFFFF" transform="translate(0,0)"/>
<path d="" fill="#FFFFFF" transform="translate(0,0)"/>
<path d="" fill="#FFFFFF" transform="translate(0,0)"/>
<path d="" fill="#FFFFFF" transform="translate(0,0)"/>
<path d="" fill="#FFFFFF" transform="translate(0,0)"/>
<path d="" fill="#FFFFFF" transform="translate(0,0)"/>
<path d="" fill="#FFFFFF" transform="translate(0,0)"/>
<path d="" fill="#FFFFFF" transform="translate(0,0)"/>
<path d="" fill="#FFFFFF" transform="translate(0,0)"/>
<path d="" fill="#FFFFFF" transform="translate(0,0)"/>
<path d="" fill="#FFFFFF" transform="translate(0,0)"/>
<path d="" fill="#FFFFFF" transform="translate(0,0)"/>
<path d="" fill="#FFFFFF" transform="translate(0,0)"/>
<path d="" fill="#FFFFFF" transform="translate(0,0)"/>
<path d="" fill="#FFFFFF" transform="translate(0,0)"/>
<path d="" fill="#FFFFFF" transform="translate(0,0)"/>
<path d="" fill="#FFFFFF" transform="translate(0,0)"/>
<path d="" fill="#FFFFFF" transform="translate(0,0)"/>
<path d="" fill="#FFFFFF" transform="translate(0,0)"/>
<path d="" fill="#FFFFFF" transform="translate(0,0)"/>
<path d="" fill="#FFFFFF" transform="translate(0,0)"/>
<path d="" fill="#000000" transform="translate(0,0)"/>
<path d="" fill="#000000" transform="translate(0,0)"/>
<path d="" fill="#000000" transform="translate(0,0)"/>
<path d="" fill="#000000" transform="translate(0,0)"/>
<path d="" fill="#000000" transform="translate(0,0)"/>
<path d="" fill="#000000" transform="translate(0,0)"/>
<path d="" fill="#FFFFFF" transform="translate(0,0)"/>
<path d="" fill="#FFFFFF" transform="translate(0,0)"/>
<path d="" fill="#FFFFFF" transform="translate(0,0)"/>
<path d="" fill="#FFFFFF" transform="translate(0,0)"/>
<path d="" fill="#FFFFFF" transform="translate(0,0)"/>
<path d="" fill="#FFFFFF" transform="translate(0,0)"/>
<path d="" fill="#FFFFFF" transform="translate(0,0)"/>
<path d="" fill="#FFFFFF" transform="translate(0,0)"/>
<path d="" fill="#FFFFFF" transform="translate(0,0)"/>
<path d="" fill="#FFFFFF" transform="translate(0,0)"/>
<path d="" fill="#FFFFFF" transform="translate(0,0)"/>
<path d="" fill="#FFFFFF" transform="translate(0,0)"/>
<path d="" fill="#FFFFFF" transform="translate(0,0)"/>
<path d="" fill="#FFFFFF" transform="translate(0,0)"/>
</svg>
